<svg width="120" height="180" viewBox="0 0 120 180" fill="none" xmlns="http://www.w3.org/2000/svg">
<g clip-path="url(#clip0_256_389)">
<path d="M28.4143 166.622C28.4143 166.869 28.3301 167.109 28.1617 167.341C28.0054 167.573 27.8129 167.797 27.5843 168.014C27.3558 168.231 27.1213 168.436 26.8806 168.623C26.6401 168.798 26.4416 168.942 26.2852 169.059C25.8762 169.378 25.4671 169.675 25.0581 169.95C24.6612 170.227 24.2462 170.466 23.8131 170.668C23.3921 170.871 22.9529 171.03 22.4958 171.147C22.0508 171.262 21.5816 171.322 21.0885 171.322L20.7997 171.364C20.4028 171.364 20.0058 171.314 19.6087 171.212C19.2238 171.095 18.863 170.93 18.5261 170.711C18.1894 170.479 17.8887 170.19 17.624 169.842C17.3593 169.494 17.1548 169.074 17.0105 168.58C16.9021 168.189 16.8181 167.725 16.7579 167.188C16.6977 166.652 16.6496 166.093 16.6134 165.514C16.5894 164.933 16.5654 164.367 16.5414 163.818C16.5292 163.252 16.5172 162.75 16.5052 162.316C16.3247 157.879 16.1805 153.442 16.0722 149.005C16.0482 148.497 16.03 147.99 16.018 147.482C16.006 146.975 16 146.467 16 145.96C16 145.09 16.042 144.35 16.1263 143.741C16.2105 143.132 16.3789 142.632 16.6316 142.24C16.8841 141.849 17.2451 141.566 17.7142 141.392C18.1954 141.218 18.8269 141.131 19.6087 141.131C20.3908 141.131 21.1727 141.138 21.9546 141.153C22.7485 141.167 23.5424 141.175 24.3364 141.175C24.5769 141.175 24.8176 141.167 25.0581 141.153C25.2988 141.124 25.5393 141.146 25.78 141.218C25.9242 141.247 26.0505 141.298 26.1589 141.37C26.2671 141.428 26.3212 141.566 26.3212 141.783C26.3212 142.306 26.1769 142.697 25.8882 142.958C25.5995 143.204 25.2566 143.371 24.8596 143.458C24.4627 143.545 24.0477 143.589 23.6146 143.589C23.1936 143.574 22.8447 143.567 22.568 143.567H20.2223C19.9817 143.567 19.7412 143.567 19.5005 143.567C19.26 143.567 19.0193 143.581 18.7788 143.611C18.7066 143.828 18.6586 144.053 18.6344 144.285C18.6104 144.517 18.5984 144.756 18.5984 145.003C18.5984 146.583 18.6284 148.142 18.6886 149.679C18.7608 151.216 18.8269 152.775 18.8871 154.355C19.6329 154.283 20.3726 154.196 21.1065 154.094C21.8403 153.993 22.58 153.877 23.3259 153.746C23.4341 153.746 23.5304 153.739 23.6146 153.725C23.7108 153.71 23.8071 153.703 23.9033 153.703C24.156 153.703 24.3304 153.783 24.4267 153.942C24.5349 154.102 24.5889 154.326 24.5889 154.617C24.5889 154.819 24.5769 155.008 24.5529 155.182C24.5409 155.356 24.5047 155.53 24.4447 155.704C24.3605 155.994 24.222 156.204 24.0296 156.335C23.8371 156.465 23.6206 156.559 23.3801 156.618C23.1394 156.661 22.8869 156.683 22.6222 156.683C22.3695 156.683 22.147 156.69 21.9546 156.705C21.4494 156.734 20.95 156.755 20.4569 156.77C19.9757 156.784 19.4885 156.806 18.9953 156.835C19.0073 157.139 19.0253 157.596 19.0495 158.205C19.0735 158.814 19.0976 159.502 19.1216 160.271C19.1577 161.026 19.1938 161.809 19.23 162.621C19.278 163.434 19.3262 164.202 19.3742 164.926C19.4224 165.637 19.4765 166.26 19.5367 166.797C19.5967 167.333 19.6569 167.695 19.7171 167.884C19.8494 168.189 19.9998 168.391 20.1681 168.493C20.3366 168.58 20.5591 168.623 20.8358 168.623C21.2809 168.623 21.7501 168.523 22.2433 168.319C22.7365 168.101 23.2176 167.834 23.6868 167.515C24.156 167.181 24.601 166.819 25.0221 166.427C25.4551 166.036 25.828 165.651 26.1407 165.275C26.2731 165.143 26.4054 165.013 26.5377 164.883C26.6701 164.738 26.8265 164.666 27.0068 164.666C27.1873 164.666 27.3618 164.731 27.5302 164.861C27.6987 164.991 27.8489 165.158 27.9814 165.362C28.1136 165.549 28.2159 165.759 28.2881 165.991C28.3723 166.223 28.4143 166.435 28.4143 166.622ZM66.5178 159.402C66.5178 159.707 66.4275 160.026 66.2471 160.358C66.0667 160.692 65.8682 160.939 65.6516 161.099C65.5915 161.141 65.4893 161.186 65.3448 161.229C65.2005 161.271 65.0441 161.316 64.8756 161.358C64.7193 161.388 64.5629 161.425 64.4066 161.468C64.2621 161.498 64.1479 161.518 64.0636 161.533L64.4968 164.753C64.6291 165.754 64.7253 166.761 64.7855 167.775C64.8576 168.775 65.0141 169.77 65.2546 170.756C65.2788 170.843 65.3028 170.923 65.3268 170.995C65.3508 171.067 65.3629 171.162 65.3629 171.277C65.3629 171.466 65.3148 171.611 65.2185 171.713C65.1343 171.814 65.0261 171.886 64.8938 171.931C64.7734 171.988 64.6411 172.023 64.4968 172.038C64.3524 172.053 64.2202 172.06 64.0998 172.06H63.8472C63.4744 172.06 63.1856 172.023 62.9811 171.951C62.7887 171.879 62.6382 171.756 62.53 171.582C62.4217 171.407 62.3494 171.19 62.3134 170.93C62.2773 170.654 62.2352 170.321 62.1872 169.93C61.8985 167.275 61.5737 164.621 61.2127 161.969C60.467 162.084 59.715 162.194 58.9572 162.294C58.2114 162.396 57.4596 162.491 56.7017 162.578L56.1244 166.839C56.1002 167.101 56.0642 167.457 56.016 167.907C55.98 168.356 55.9319 168.82 55.8717 169.299C55.8235 169.763 55.7634 170.197 55.6913 170.603C55.631 171.01 55.559 171.307 55.4747 171.494C55.4026 171.669 55.3364 171.791 55.2762 171.866C55.2161 171.938 55.1019 171.973 54.9333 171.973C54.7169 171.973 54.5005 171.923 54.2838 171.821C54.0793 171.734 53.8928 171.604 53.7245 171.429C53.5681 171.27 53.4418 171.075 53.3456 170.843C53.2493 170.611 53.2012 170.349 53.2012 170.06C53.2012 169.77 53.2252 169.479 53.2733 169.189C53.3336 168.9 53.3816 168.61 53.4176 168.319C53.55 167.363 53.6703 166.413 53.7786 165.47C53.8868 164.514 54.0072 163.563 54.1395 162.621C54.0552 162.606 53.959 162.585 53.8508 162.556C53.7425 162.511 53.6343 162.461 53.526 162.403C53.4298 162.346 53.3456 162.273 53.2733 162.186C53.2012 162.099 53.1651 161.997 53.1651 161.882C53.1651 161.735 53.2071 161.605 53.2914 161.49C53.3876 161.358 53.4958 161.243 53.6161 161.141C53.7485 161.026 53.8808 160.931 54.0132 160.859C54.1455 160.772 54.2598 160.707 54.3559 160.662C54.6086 158.634 54.8492 156.61 55.0777 154.595C55.3063 152.579 55.5107 150.542 55.6913 148.483C55.7394 147.932 55.7815 147.373 55.8175 146.808C55.8537 146.242 55.8897 145.677 55.9258 145.111C55.9739 144.546 56.0282 143.988 56.0882 143.436C56.1604 142.885 56.2566 142.335 56.3769 141.783C56.4852 141.261 56.6656 140.841 56.9183 140.522C57.1709 140.203 57.5437 140.043 58.0369 140.043C58.1813 140.043 58.3196 140.058 58.4521 140.087C58.5963 140.116 58.7227 140.174 58.831 140.261C59.1437 140.45 59.4684 140.964 59.8054 141.805C60.1421 142.646 60.479 143.669 60.8157 144.872C61.1527 146.061 61.4713 147.352 61.772 148.744C62.0847 150.136 62.3675 151.484 62.6202 152.789C62.8728 154.094 63.0894 155.276 63.2698 156.335C63.4502 157.379 63.5825 158.154 63.6668 158.662C63.9195 158.619 64.1719 158.582 64.4246 158.554C64.6772 158.509 64.9298 158.487 65.1825 158.487C65.3028 158.487 65.441 158.494 65.5974 158.509C65.7538 158.524 65.8981 158.567 66.0304 158.641C66.1748 158.699 66.2892 158.793 66.3733 158.923C66.4696 159.038 66.5178 159.198 66.5178 159.402ZM60.852 159.228C60.539 157.169 60.1963 155.131 59.8233 153.116C59.4625 151.085 59.0354 149.063 58.5423 147.047C58.3256 149.237 58.0911 151.412 57.8385 153.572C57.5859 155.733 57.3153 157.894 57.0266 160.054C57.6761 159.939 58.3136 159.814 58.9393 159.684C59.5767 159.539 60.2143 159.387 60.852 159.228ZM105 164.926C105 165.143 104.97 165.362 104.91 165.579C104.862 165.781 104.808 165.986 104.747 166.188C104.483 167.014 104.158 167.782 103.773 168.493C103.388 169.189 102.943 169.79 102.438 170.299C101.932 170.806 101.361 171.205 100.724 171.494C100.086 171.786 99.3823 171.931 98.6125 171.931C97.5899 171.931 96.7118 171.669 95.978 171.147C95.2443 170.626 94.6186 169.95 94.1014 169.124C93.584 168.283 93.1571 167.348 92.8202 166.318C92.4954 165.29 92.2367 164.259 92.0443 163.229C91.7556 161.735 91.5331 160.243 91.3767 158.749C91.2204 157.241 91.1422 155.733 91.1422 154.225C91.1422 153.34 91.1721 152.427 91.2324 151.484C91.3045 150.542 91.4248 149.614 91.5932 148.7C91.7615 147.772 91.9902 146.88 92.2789 146.025C92.5676 145.155 92.9285 144.357 93.3615 143.632C93.7946 142.893 94.3058 142.24 94.8953 141.675C95.4967 141.109 96.1944 140.667 96.9885 140.348C97.2772 140.218 97.5779 140.13 97.8907 140.087C98.2034 140.029 98.5162 140 98.8289 140C99.4544 140 100.05 140.123 100.615 140.37C101.181 140.616 101.674 140.964 102.095 141.414C102.528 141.863 102.865 142.407 103.105 143.045C103.358 143.683 103.484 144.394 103.484 145.177C103.484 145.438 103.436 145.633 103.34 145.764C103.244 145.894 103.075 145.96 102.835 145.96C102.39 145.96 102.041 145.873 101.788 145.699C101.548 145.525 101.349 145.307 101.193 145.046C101.036 144.785 100.904 144.502 100.796 144.198C100.699 143.893 100.579 143.611 100.435 143.349C100.291 143.088 100.098 142.871 99.8576 142.697C99.6169 142.523 99.2861 142.436 98.8649 142.436C98.4439 142.436 98.0471 142.538 97.6741 142.74C97.3132 142.929 96.9765 143.183 96.6635 143.502C96.3628 143.821 96.0861 144.183 95.8337 144.589C95.593 144.981 95.3765 145.38 95.184 145.786C94.6788 146.917 94.3239 148.127 94.1195 149.418C93.9149 150.694 93.8127 151.977 93.8127 153.268C93.8127 153.703 93.8247 154.269 93.8487 154.965C93.8847 155.646 93.933 156.4 93.9931 157.226C94.0653 158.053 94.1614 158.931 94.2818 159.859C94.4021 160.772 94.5464 161.67 94.7148 162.556C94.8953 163.439 95.1058 164.289 95.3465 165.1C95.599 165.911 95.8817 166.622 96.1944 167.231C96.5192 167.842 96.8802 168.326 97.2772 168.69C97.6861 169.052 98.1432 169.234 98.6485 169.234C99.1656 169.234 99.6228 169.074 100.02 168.755C100.417 168.421 100.754 168.007 101.03 167.515C101.319 167.006 101.554 166.463 101.734 165.883C101.927 165.29 102.077 164.738 102.185 164.23C102.221 164.085 102.251 163.955 102.275 163.838C102.311 163.723 102.353 163.621 102.402 163.534C102.462 163.446 102.534 163.382 102.618 163.339C102.702 163.294 102.823 163.274 102.979 163.274C103.147 163.274 103.346 163.317 103.575 163.404C103.815 163.476 104.038 163.586 104.242 163.73C104.459 163.875 104.639 164.05 104.784 164.252C104.928 164.454 105 164.679 105 164.926Z" fill="#C08332"/>
<path d="M105 172.258H16V180H105V172.258Z" fill="white"/>
</g>
<mask id="mask0_256_389" style="mask-type:luminance" maskUnits="userSpaceOnUse" x="0" y="0" width="120" height="123">
<path d="M120 0H0V122.9H120V0Z" fill="white"/>
</mask>
<g mask="url(#mask0_256_389)">
<path d="M0.362549 86.2839H120.363" stroke="#C08332"/>
<path d="M0 110.949H120" stroke="#C08332"/>
<path d="M92.3059 49.1212C92.3059 67.5418 77.3729 82.4747 58.9524 82.4747C40.5318 82.4747 25.5989 67.5418 25.5989 49.1212C25.5989 30.7007 40.5318 15.7678 58.9524 15.7678C77.3729 15.7678 92.3059 30.7007 92.3059 49.1212Z" fill="white"/>
<path fill-rule="evenodd" clip-rule="evenodd" d="M58.9524 81.3871C76.7722 81.3871 91.2182 66.941 91.2182 49.1212C91.2182 31.3013 76.7722 16.8554 58.9524 16.8554C41.1322 16.8554 26.6865 31.3013 26.6865 49.1212C26.6865 66.941 41.1322 81.3871 58.9524 81.3871ZM58.9524 82.4747C77.3729 82.4747 92.3059 67.5418 92.3059 49.1212C92.3059 30.7007 77.3729 15.7678 58.9524 15.7678C40.5318 15.7678 25.5989 30.7007 25.5989 49.1212C25.5989 67.5418 40.5318 82.4747 58.9524 82.4747Z" fill="#C08332"/>
<path fill-rule="evenodd" clip-rule="evenodd" d="M82.389 25.6844L82.1548 25.1937C81.9202 24.703 81.9206 24.7028 81.9206 24.7028L81.9231 24.7016L81.9303 24.6982L81.9575 24.6853C81.9815 24.6741 82.0159 24.6579 82.0609 24.6371C82.1504 24.5955 82.2802 24.5359 82.4433 24.463C82.7693 24.3171 83.2279 24.1176 83.7608 23.9021C84.8198 23.474 86.197 22.9726 87.4112 22.7133C88.0148 22.5843 88.6126 22.5075 89.1245 22.5448C89.6194 22.5809 90.1701 22.7355 90.4848 23.2114C90.8016 23.6904 90.7513 24.2997 90.5247 24.9274C90.293 25.5696 89.8329 26.3609 89.118 27.3295L88.2429 26.6836C88.9328 25.7488 89.3221 25.0559 89.5016 24.5582C89.6865 24.0458 89.6093 23.8592 89.5777 23.8113C89.544 23.7604 89.4251 23.6573 89.0455 23.6296C88.683 23.6032 88.2015 23.6566 87.6381 23.7769C86.5186 24.0161 85.2109 24.4889 84.1683 24.9105C83.6502 25.1199 83.2043 25.314 82.8878 25.4557C82.7297 25.5265 82.6039 25.584 82.5184 25.6237C82.4756 25.6436 82.443 25.6589 82.4212 25.6693L82.3966 25.6808L82.389 25.6844ZM59.9439 57.0555C48.9202 67.0822 37.6286 76.2888 30.3719 79.8805C28.5621 80.7763 27.0973 81.3716 25.9351 81.7077C24.7904 82.039 23.8688 82.1402 23.1839 81.9662C22.8286 81.8759 22.5199 81.7069 22.2898 81.4437C22.0598 81.1805 21.9418 80.8615 21.902 80.528C21.8254 79.8863 22.0304 79.1282 22.3675 78.3517C23.0509 76.7775 24.4162 74.8209 26.0399 72.9034C27.67 70.9784 29.591 69.0566 31.4164 67.5535L32.1078 68.3931C30.3381 69.8505 28.463 71.7248 26.8699 73.6064C25.2704 75.4952 23.9854 77.3561 23.3652 78.7849C23.0504 79.51 22.9403 80.0498 22.982 80.3993C23.0013 80.5617 23.0507 80.6618 23.1087 80.7281C23.1665 80.7941 23.2661 80.8648 23.4517 80.9123C23.8485 81.013 24.5388 80.9793 25.6328 80.6628C26.7094 80.3514 28.1102 79.7862 29.8894 78.9056C36.9894 75.3915 48.1752 66.29 59.2119 56.2506C70.2313 46.2275 81.0396 35.3282 87.3699 28.2748L88.179 29.0012C81.8205 36.0867 70.9853 47.0121 59.9439 57.0555Z" fill="#C08332"/>
<path d="M14.5809 44.6015C14.6448 44.6073 14.7044 44.6396 14.7598 44.6976C14.8155 44.7519 14.8682 44.8176 14.9181 44.8941C14.9679 44.9709 15.0138 45.0489 15.0558 45.1286C15.0941 45.208 15.126 45.2736 15.1516 45.3251C15.2225 45.4607 15.2879 45.5956 15.3476 45.7301C15.4077 45.8606 15.4578 45.9962 15.498 46.1365C15.5386 46.2728 15.5673 46.4138 15.5843 46.5596C15.6016 46.7013 15.6032 46.8496 15.589 47.0037L15.592 47.095C15.5806 47.219 15.556 47.3419 15.5183 47.4637C15.4772 47.5812 15.4236 47.6899 15.3575 47.79C15.2877 47.8901 15.2038 47.9771 15.106 48.0514C15.0081 48.1261 14.8932 48.1797 14.7612 48.2131C14.6566 48.2377 14.5338 48.253 14.3929 48.2591C14.2521 48.2649 14.1059 48.2667 13.9544 48.2642C13.8033 48.258 13.6559 48.2522 13.5124 48.2464C13.3654 48.2367 13.2353 48.2287 13.1221 48.2222C11.9662 48.1728 10.8113 48.1123 9.65745 48.0405C9.52512 48.0358 9.39298 48.0293 9.26101 48.0209C9.12905 48.0126 8.99727 48.0025 8.86563 47.9905C8.63998 47.9698 8.4494 47.939 8.29387 47.898C8.13834 47.8574 8.01345 47.7925 7.91915 47.7045C7.82489 47.616 7.76192 47.4967 7.73023 47.3459C7.69894 47.1911 7.69449 46.9917 7.71693 46.7474C7.7394 46.5026 7.76373 46.2586 7.78994 46.0143C7.81648 45.7667 7.84113 45.5187 7.86394 45.2704C7.87086 45.1953 7.87586 45.1199 7.87902 45.0441C7.8784 44.9684 7.89094 44.8937 7.91665 44.8201C7.92832 44.7759 7.94511 44.7374 7.96704 44.7052C7.98517 44.6729 8.02247 44.6591 8.07888 44.6642C8.21426 44.6769 8.31163 44.7313 8.37105 44.8277C8.4267 44.9238 8.46009 45.0351 8.47126 45.1612C8.48243 45.2874 8.48181 45.4183 8.46937 45.5535C8.45353 45.6848 8.4416 45.7935 8.43366 45.8802L8.36634 46.6136C8.35942 46.6886 8.35253 46.764 8.3456 46.8391C8.33871 46.9145 8.33556 46.9899 8.33618 47.0657C8.39052 47.0936 8.44744 47.1139 8.5069 47.1269C8.56639 47.14 8.62809 47.1494 8.69201 47.1552C9.10193 47.1929 9.50707 47.2208 9.90742 47.2386C10.3081 47.2527 10.7143 47.269 11.1259 47.2879C11.1285 47.053 11.1272 46.8195 11.1219 46.5878C11.1167 46.3558 11.1078 46.122 11.0954 45.8856C11.0985 45.8519 11.0994 45.8214 11.098 45.795C11.097 45.7645 11.0979 45.7341 11.1007 45.704C11.1079 45.6253 11.1336 45.5724 11.1777 45.5463C11.2222 45.5162 11.2821 45.5046 11.3573 45.5115C11.4099 45.5165 11.4585 45.5245 11.5029 45.5361C11.5477 45.5441 11.5918 45.5597 11.6352 45.5825C11.708 45.6159 11.7585 45.6641 11.7868 45.7272C11.8152 45.7906 11.8334 45.8606 11.8416 45.9371C11.8459 46.0132 11.8443 46.093 11.8367 46.1756C11.8294 46.2547 11.825 46.3243 11.8232 46.3848C11.8162 46.5436 11.8075 46.7002 11.7971 46.8547C11.7871 47.0055 11.7787 47.1581 11.7721 47.3129C11.8514 47.3165 11.9704 47.3216 12.129 47.3289C12.2877 47.3357 12.467 47.3444 12.667 47.3553C12.8635 47.3622 13.0677 47.3695 13.2793 47.3774C13.4913 47.3818 13.692 47.3851 13.8814 47.3872C14.067 47.389 14.2303 47.3872 14.3712 47.3811C14.512 47.3749 14.6078 47.3647 14.6584 47.3506C14.7412 47.3165 14.7981 47.2741 14.8293 47.2241C14.8567 47.1733 14.8744 47.1048 14.8823 47.0185C14.8951 46.8793 14.8822 46.7303 14.8437 46.5712C14.8015 46.4116 14.7457 46.255 14.6765 46.1006C14.6034 45.9461 14.5222 45.7982 14.4327 45.6576C14.3436 45.5125 14.2547 45.3871 14.1659 45.2802C14.1358 45.2356 14.1058 45.1913 14.0757 45.1467C14.0419 45.1022 14.0276 45.0514 14.0328 44.9948C14.038 44.9386 14.0599 44.8857 14.0986 44.836C14.1373 44.7864 14.1849 44.7436 14.2413 44.707C14.294 44.67 14.3514 44.6432 14.4137 44.6261C14.4763 44.6051 14.532 44.5971 14.5809 44.6015Z" fill="#C08332"/>
<path d="M12.6184 39.7744C13.1279 39.8842 13.6212 40.0329 14.0984 40.2207C14.5764 40.4045 15.049 40.605 15.5162 40.8214C15.561 40.8464 15.5996 40.8645 15.6321 40.8754C15.7344 40.9204 15.8399 40.9682 15.9488 41.019C16.0548 41.0646 16.1576 41.1256 16.2573 41.201C16.3392 41.2691 16.4061 41.3529 16.458 41.4529C16.5069 41.5486 16.5207 41.6462 16.4992 41.7459C16.4905 41.7865 16.4721 41.8267 16.4441 41.8673C16.4161 41.9075 16.3818 41.9503 16.3411 41.9956C16.2736 42.0584 16.1915 42.0986 16.0949 42.1164C15.9947 42.1334 15.8938 42.1446 15.7922 42.1497L15.7511 42.1526L15.7566 42.1537C15.5031 42.165 15.2516 42.1668 15.0021 42.1592C14.7534 42.1483 14.5029 42.1367 14.2505 42.1251C14.0943 42.1146 13.9401 42.1044 13.7876 42.095C13.6315 42.0845 13.4764 42.0779 13.3224 42.0758L12.9789 42.083C12.9011 42.0856 12.8174 42.0888 12.7277 42.0924C12.6351 42.0921 12.5481 42.0924 12.4666 42.0943C12.3851 42.0961 12.3136 42.0961 12.2521 42.0946C12.187 42.0921 12.1434 42.0885 12.1212 42.0837C12.0511 42.0685 12.0097 42.0366 11.997 41.9873C11.9816 41.934 11.9801 41.8775 11.9929 41.8184C12.0183 41.7005 12.0664 41.6027 12.1372 41.5251C12.2087 41.4439 12.308 41.3956 12.4348 41.3804C12.5023 41.3721 12.5728 41.3677 12.6461 41.3681C12.7202 41.3648 12.7936 41.3652 12.8661 41.3692C13.1233 41.3587 13.3944 41.3554 13.6795 41.3587C13.9617 41.3579 14.2327 41.3641 14.4925 41.3775L14.7857 41.3884C14.8049 41.3888 14.8201 41.3898 14.8312 41.3924C14.8423 41.3949 14.8515 41.3967 14.8589 41.3982C14.8671 41.3964 14.8767 41.3964 14.8878 41.3989C14.8996 41.3975 14.917 41.3975 14.94 41.3985C14.5661 41.2329 14.1895 41.0802 13.8101 40.9407C13.427 40.8004 13.0361 40.6872 12.6374 40.6013C12.5561 40.5839 12.4756 40.5723 12.3956 40.5665C12.3165 40.5575 12.2333 40.5491 12.146 40.5419C12.0661 40.5364 11.9844 40.5303 11.9007 40.5237C11.8142 40.5129 11.7285 40.4984 11.6436 40.4802C11.5661 40.4636 11.5178 40.428 11.4985 40.3737C11.4793 40.3193 11.4773 40.2569 11.4924 40.1869C11.5107 40.1017 11.5329 40.0256 11.5591 39.9578C11.5853 39.89 11.6205 39.8338 11.6649 39.7892C11.7056 39.7439 11.759 39.7109 11.8252 39.6906C11.8878 39.6692 11.9664 39.6631 12.061 39.6718C12.1475 39.6827 12.2406 39.699 12.3403 39.7204C12.4371 39.7374 12.5298 39.7555 12.6184 39.7744Z" fill="#C08332"/>
<path d="M16.9044 36.0727C17.0122 36.1075 17.1138 36.1739 17.2091 36.2722C17.3056 36.3668 17.3873 36.4763 17.4543 36.6013C17.5176 36.7246 17.5601 36.8577 17.5818 36.9994C17.6047 37.1375 17.597 37.2662 17.5588 37.3848C17.5044 37.5537 17.4251 37.689 17.321 37.7901C17.2133 37.8905 17.0893 37.9674 16.9489 38.0214C16.8049 38.0743 16.6518 38.1062 16.4895 38.1175C16.3283 38.1251 16.167 38.1207 16.0057 38.1044C15.8407 38.0867 15.6804 38.0609 15.5248 38.0265C15.3668 37.9877 15.2248 37.9478 15.099 37.9072C14.9912 37.8724 14.8653 37.826 14.7214 37.7676C14.5787 37.706 14.4329 37.6349 14.284 37.5552C14.1363 37.4722 13.9938 37.3786 13.8566 37.2746C13.7195 37.1709 13.6025 37.06 13.5058 36.9414C13.4103 36.8192 13.3427 36.6905 13.3031 36.5546C13.2647 36.4154 13.2692 36.2722 13.3168 36.1245C13.3538 36.0095 13.4102 35.9146 13.4859 35.8398C13.5627 35.7614 13.6505 35.7044 13.7493 35.6688C13.8456 35.6284 13.9493 35.6083 14.0604 35.6084C14.1726 35.6049 14.2827 35.6205 14.3905 35.6553C14.5307 35.7004 14.673 35.782 14.8175 35.9C14.962 36.018 15.0947 36.154 15.2157 36.3081C15.3378 36.4585 15.4409 36.6188 15.525 36.7888C15.6067 36.9541 15.6595 37.11 15.6837 37.2565C15.7507 37.2702 15.8506 37.2865 15.9834 37.3054C16.1125 37.3235 16.244 37.334 16.3778 37.3373C16.5127 37.3373 16.6332 37.3264 16.7393 37.305C16.8466 37.2804 16.9118 37.2318 16.935 37.16C16.9465 37.1241 16.9456 37.0901 16.9321 37.0578C16.9198 37.0223 16.8992 36.9878 16.8702 36.9545C16.8412 36.9215 16.8074 36.8907 16.7689 36.8624C16.7316 36.8305 16.6955 36.8011 16.6606 36.7739L16.5955 36.7174C16.5871 36.7065 16.581 36.7007 16.5775 36.6996C16.575 36.6949 16.5708 36.6894 16.5648 36.6836C16.5261 36.6434 16.4905 36.6061 16.458 36.5716C16.4265 36.5339 16.4034 36.4886 16.3885 36.4364L16.3868 36.4415C16.377 36.4226 16.3745 36.4059 16.3791 36.3914C16.3813 36.3726 16.3847 36.3555 16.3894 36.3414C16.4021 36.3019 16.4286 36.2627 16.4688 36.2239C16.509 36.1853 16.5553 36.1526 16.6076 36.1258C16.6563 36.0979 16.708 36.0789 16.7629 36.0687C16.8141 36.0575 16.8613 36.0588 16.9044 36.0727ZM14.1827 36.374C14.1467 36.3624 14.1084 36.3519 14.0677 36.3429C14.027 36.3338 13.99 36.3316 13.9566 36.3367C14.0015 36.407 14.0607 36.4755 14.1342 36.543C14.2053 36.6053 14.2835 36.6644 14.3688 36.7195C14.4506 36.7739 14.5353 36.825 14.623 36.8729C14.7118 36.9175 14.7946 36.9559 14.8713 36.9889C14.79 36.8595 14.6909 36.7362 14.5739 36.6191C14.4532 36.5009 14.3229 36.4194 14.1827 36.374Z" fill="#C08332"/>
<path d="M18.948 33.949C18.9252 34.0009 18.8931 34.0548 18.8518 34.1109C18.8121 34.1635 18.7645 34.2106 18.709 34.2522C18.655 34.2903 18.5972 34.3184 18.5355 34.3366C18.4719 34.3498 18.4072 34.3419 18.3416 34.3129C18.2449 34.2702 18.1514 34.2249 18.0611 34.1768C17.969 34.1237 17.8786 34.0714 17.7898 34.0199L17.795 34.0222L17.4615 33.8378C17.3418 33.7725 17.2091 33.7037 17.0636 33.6312C16.9181 33.5587 16.7701 33.4872 16.6196 33.4166C16.4672 33.3411 16.3174 33.2688 16.1704 33.1998C16.0233 33.1308 15.8876 33.0688 15.7633 33.0139C15.6907 32.9819 15.6174 32.9516 15.5433 32.923C15.4673 32.8895 15.3913 32.8559 15.3153 32.8224C15.2482 32.7969 15.1748 32.7666 15.0954 32.7315C15.0124 32.6949 14.9365 32.6613 14.8674 32.6308C14.7948 32.5988 14.7399 32.5642 14.7026 32.5272C14.6634 32.4851 14.6636 32.4191 14.7032 32.3293C14.7383 32.2499 14.7956 32.1761 14.8752 32.108C14.9563 32.0365 15.0425 32.0002 15.1338 31.9992L15.1315 32.0044C15.1771 32.0039 15.2447 32.0192 15.3341 32.0505C15.4215 32.0767 15.4989 32.1026 15.566 32.1281C15.5021 32.0297 15.4361 31.9221 15.3679 31.8053C15.3013 31.6851 15.2456 31.5635 15.2008 31.4406C15.1525 31.3161 15.1221 31.1932 15.1095 31.0721C15.097 30.951 15.1151 30.8351 15.1639 30.7246C15.2279 30.5795 15.313 30.4849 15.4191 30.4409C15.5252 30.397 15.6412 30.3821 15.767 30.3963C15.8893 30.4091 16.0134 30.4412 16.1393 30.4926C16.2618 30.5425 16.3731 30.5896 16.4733 30.6338L16.5147 30.6521C16.5562 30.6704 16.5969 30.6904 16.6368 30.7122C16.6748 30.729 16.7081 30.7519 16.7365 30.781C16.763 30.805 16.7798 30.8372 16.7868 30.8775C16.7953 30.9142 16.7882 30.9586 16.7653 31.0104C16.7409 31.0657 16.708 31.1213 16.6668 31.1774C16.622 31.232 16.5719 31.28 16.5164 31.3216C16.4625 31.3597 16.4047 31.3878 16.343 31.406C16.2778 31.4227 16.2134 31.419 16.1497 31.395C16.122 31.3828 16.0944 31.3706 16.0668 31.3584C16.0391 31.3462 16.0123 31.3323 15.9861 31.3166C15.9689 31.309 15.9481 31.2999 15.9239 31.2892C15.8978 31.2735 15.8727 31.2603 15.8485 31.2497C15.9103 31.409 16.0033 31.5677 16.1275 31.7258C16.2533 31.8804 16.3925 32.0326 16.5451 32.1825C16.6992 32.329 16.8589 32.4676 17.0241 32.5983C17.1859 32.7275 17.3334 32.8422 17.4667 32.9423L17.4823 32.9491C17.5848 33.0068 17.6871 33.0602 17.7892 33.1094C17.8914 33.1586 17.9969 33.2093 18.106 33.2616C18.2288 33.3199 18.3526 33.3808 18.4774 33.4441C18.6037 33.504 18.7243 33.5675 18.8391 33.6347C18.9017 33.6706 18.9426 33.7135 18.9619 33.7632C18.9862 33.8111 18.9816 33.873 18.948 33.949Z" fill="#C08332"/>
<path d="M22.0966 28.442C22.2307 28.5194 22.3684 28.6055 22.5099 28.7003C22.6514 28.7951 22.7891 28.8964 22.9231 29.0043C23.0603 29.1141 23.1895 29.2301 23.3108 29.3525C23.432 29.4748 23.5378 29.6013 23.628 29.7319C23.7545 29.9358 23.843 30.1526 23.8934 30.3824C23.9491 30.6107 23.9733 30.8406 23.9662 31.072C23.9591 31.3033 23.9224 31.5329 23.8562 31.7607C23.7901 31.9886 23.6985 32.2038 23.5814 32.4066C23.5644 32.436 23.5429 32.4694 23.517 32.5068C23.4892 32.5474 23.4574 32.5836 23.4217 32.6152C23.3892 32.6488 23.3523 32.6712 23.311 32.6822C23.2698 32.6932 23.2262 32.6855 23.1804 32.6591C23.1608 32.6478 23.144 32.6316 23.1301 32.6104C23.1235 32.6066 23.1179 32.6012 23.1133 32.5942C23.11 32.5923 23.1068 32.5904 23.1035 32.5885C23.0513 32.5278 23.0141 32.4715 22.9918 32.4194C22.9696 32.3673 22.9583 32.315 22.9581 32.2625C22.9593 32.2152 22.9701 32.1626 22.9905 32.1046C23.0123 32.0518 23.0388 31.9907 23.07 31.9216C23.181 31.7066 23.2462 31.4804 23.2656 31.243L23.2705 31.2458C23.2886 30.9728 23.2541 30.7305 23.167 30.5189C23.0851 30.3058 22.9672 30.1135 22.8134 29.9418C22.6648 29.7687 22.4906 29.6136 22.2907 29.4764C22.0908 29.3392 21.8846 29.2092 21.6721 29.0865C21.623 29.0581 21.587 29.0373 21.5641 29.0241C21.5413 29.0109 21.52 28.9986 21.5004 28.9873C21.484 28.9778 21.4644 28.9665 21.4415 28.9533C21.4186 28.9401 21.3817 28.921 21.3307 28.8959C21.353 29.0613 21.3282 29.2062 21.2564 29.3305C21.1733 29.4744 21.0632 29.5743 20.9262 29.6304C20.7878 29.6813 20.635 29.7042 20.4678 29.6993C20.2992 29.6891 20.1218 29.6565 19.9356 29.6013C19.7481 29.5409 19.5636 29.4715 19.3822 29.3929C19.1994 29.3091 19.0244 29.2233 18.8571 29.1354C18.6917 29.0443 18.5452 28.9619 18.4177 28.8882L18.2117 28.7692C18.0383 28.6691 17.8683 28.5709 17.7015 28.4746C17.5366 28.375 17.3736 28.2722 17.2125 28.166L17.1389 28.1236C17.0997 28.1009 17.0604 28.0782 17.0212 28.0556C16.9819 28.0329 16.9462 28.0079 16.914 27.9806C16.8693 27.9373 16.842 27.8976 16.8324 27.8615C16.8246 27.8221 16.8367 27.7746 16.8688 27.719C16.8839 27.6929 16.8998 27.6693 16.9163 27.6483C16.9346 27.624 16.9546 27.6007 16.9763 27.5783C17.0383 27.5313 17.0944 27.4982 17.1446 27.4793C17.1916 27.4584 17.2394 27.4512 17.2881 27.4575C17.3354 27.4586 17.3845 27.4717 17.4355 27.4968C17.4883 27.5185 17.5474 27.5483 17.6128 27.5861L18.2701 27.9657C18.3486 28.011 18.4467 28.0677 18.5645 28.1357C18.6808 28.1985 18.8096 28.2663 18.9507 28.3391C19.0918 28.4119 19.2388 28.4858 19.3916 28.561C19.5445 28.6362 19.6952 28.7036 19.8439 28.7633C19.9926 28.823 20.1317 28.8728 20.2613 28.9128C20.3908 28.9527 20.5046 28.9748 20.6025 28.979C20.5089 28.8465 20.3894 28.7098 20.2439 28.5691C20.0951 28.4265 19.9302 28.2855 19.749 28.146C19.5665 28.0014 19.3744 27.8621 19.1727 27.7281C18.9729 27.5909 18.7751 27.4614 18.5794 27.3397C18.3855 27.2147 18.2003 27.1012 18.0237 26.9992C17.8457 26.892 17.6897 26.7997 17.5556 26.7223C17.5229 26.7035 17.4886 26.6836 17.4526 26.6629C17.4152 26.6369 17.3856 26.6089 17.3638 26.5788C17.3386 26.5468 17.3228 26.5137 17.3165 26.4795C17.3119 26.442 17.3239 26.3988 17.3522 26.3497C17.3654 26.3268 17.3828 26.3042 17.4045 26.2818C17.428 26.2562 17.4487 26.2354 17.4666 26.2195C17.4704 26.213 17.4758 26.2074 17.4828 26.2028C17.4885 26.1929 17.4932 26.1848 17.497 26.1782C17.5398 26.1419 17.5816 26.1072 17.6225 26.0741C17.6634 26.041 17.7055 26.0174 17.7486 26.003C17.7904 25.9835 17.8356 25.977 17.8843 25.9833C17.9349 25.9863 17.9912 26.0058 18.0534 26.0416C18.1286 26.0851 18.2143 26.1368 18.3105 26.1967C18.4054 26.2514 18.5032 26.3124 18.6041 26.3793C18.7069 26.443 18.807 26.5074 18.9047 26.5725C18.999 26.6357 19.0835 26.6932 19.1582 26.7451L19.3186 26.8638C19.3606 26.8968 19.4035 26.9282 19.4474 26.9579C19.4913 26.9876 19.5329 27.0138 19.5721 27.0364C19.7814 27.1573 19.9917 27.2766 20.2028 27.3942C20.4108 27.5098 20.6213 27.6249 20.8343 27.7392C21.0474 27.8535 21.2596 27.9695 21.4707 28.0871C21.6787 28.2028 21.8873 28.3211 22.0966 28.442Z" fill="#C08332"/>
<path d="M23.7392 25.0671C23.7728 25.0915 23.7964 25.1202 23.8097 25.1532C23.82 25.1841 23.8224 25.2161 23.8169 25.2494C23.8136 25.2797 23.8035 25.3097 23.7866 25.3394C23.775 25.3683 23.7603 25.395 23.7426 25.4195C23.7182 25.4531 23.6848 25.4895 23.6423 25.5287C23.6052 25.567 23.5634 25.6021 23.5171 25.6338C23.4708 25.6655 23.4236 25.6919 23.3756 25.7131C23.3267 25.729 23.2788 25.7339 23.2319 25.7278C23.1881 25.724 23.1193 25.6998 23.0257 25.6552C22.9312 25.6054 22.8256 25.5451 22.7089 25.4744C22.5892 25.4015 22.4644 25.3227 22.3347 25.2379C22.2019 25.1509 22.0751 25.0683 21.9545 24.9901C21.8362 24.9089 21.73 24.8366 21.6361 24.7732C21.5413 24.7044 21.471 24.6534 21.4252 24.6201C21.2112 24.4649 21.0071 24.3122 20.8128 24.1619C20.6177 24.0064 20.418 23.8476 20.2138 23.6854C20.2027 23.7007 20.1931 23.7171 20.1851 23.7346C20.177 23.752 20.1675 23.7685 20.1564 23.7837C20.1337 23.8279 20.1083 23.8725 20.0804 23.9175C20.0546 23.9595 20.0262 24.0018 19.9951 24.0446C19.9575 24.0966 19.915 24.1358 19.8678 24.1622C19.8207 24.1887 19.765 24.1786 19.7008 24.132C19.6244 24.0766 19.5755 24.0155 19.554 23.9486C19.5325 23.8817 19.5284 23.8134 19.5417 23.7437C19.5519 23.6717 19.5745 23.6019 19.6097 23.5341C19.6418 23.4641 19.6759 23.3978 19.7119 23.3353C19.7185 23.3261 19.723 23.32 19.7252 23.317C19.7244 23.3117 19.7273 23.3045 19.734 23.2953C19.6995 23.2656 19.6573 23.2304 19.6076 23.1897C19.5548 23.1467 19.4974 23.1004 19.4354 23.0508C19.3368 22.9745 19.2331 22.8923 19.1245 22.8042C19.0127 22.7138 18.9071 22.6279 18.8076 22.5463C18.7051 22.4626 18.6174 22.3874 18.5445 22.3205C18.4687 22.2515 18.4173 22.2002 18.3903 22.1666C18.3616 22.1225 18.3417 22.0824 18.3306 22.0463C18.3217 22.0072 18.3371 21.9601 18.377 21.9051C18.4658 21.7828 18.5742 21.7169 18.7025 21.7073C18.8308 21.6977 18.953 21.735 19.0691 21.8193C19.2036 21.9169 19.3348 22.019 19.4626 22.1258C19.5927 22.2294 19.7243 22.3342 19.8574 22.4401L20.0813 22.6235C20.1276 22.5404 20.1693 22.454 20.2063 22.3643C20.2443 22.2799 20.2837 22.1965 20.3247 22.1143C20.3679 22.029 20.4151 21.9512 20.4661 21.8809C20.5104 21.8198 20.5616 21.7846 20.6196 21.7753C20.6746 21.7639 20.7326 21.7803 20.7938 21.8247C20.861 21.8735 20.9179 21.9334 20.9643 22.0044C21.0107 22.0754 21.0286 22.1537 21.0179 22.2392L21.0212 22.2346C21.0185 22.2513 21.001 22.2946 20.9689 22.3646C20.9337 22.4324 20.8919 22.5094 20.8434 22.5955C20.7971 22.6786 20.7509 22.7617 20.7046 22.8447C20.6606 22.9248 20.6267 22.9842 20.6032 23.0231L20.5999 23.0277C20.7666 23.158 20.9329 23.2857 21.0989 23.4107C21.2617 23.5335 21.4287 23.657 21.5999 23.7811C21.8353 23.9519 22.0904 24.1276 22.3652 24.3083C22.6392 24.4837 22.9076 24.6411 23.1704 24.7804L23.4033 24.8934C23.4642 24.9189 23.5239 24.9459 23.5825 24.9744C23.6381 25.0008 23.6903 25.0316 23.7392 25.0671Z" fill="#C08332"/>
<path d="M27.3282 20.5208C27.3842 20.5715 27.4084 20.6265 27.4006 20.6857C27.3929 20.7449 27.3649 20.8011 27.3168 20.8543C27.2864 20.8879 27.2519 20.9204 27.2134 20.9517C27.172 20.9805 27.1319 21.0079 27.0931 21.0339C27.0231 21.0775 26.9603 21.1047 26.9047 21.1154C26.8516 21.1234 26.8021 21.1219 26.7561 21.1108C26.7073 21.0972 26.6607 21.0755 26.6164 21.0456C26.5747 21.0129 26.5288 20.9764 26.4787 20.9362C26.4646 20.9235 26.4508 20.9135 26.4371 20.9061C26.4259 20.896 26.4147 20.8859 26.4034 20.8757C26.2362 20.7397 26.0649 20.5998 25.8893 20.4562C25.7162 20.3097 25.5499 20.1643 25.3903 20.0198C25.3091 19.9464 25.2279 19.8729 25.1467 19.7993C25.068 19.7231 24.9894 19.6468 24.9107 19.5705C24.832 19.4942 24.7535 19.4206 24.6751 19.3496C24.5965 19.2733 24.5165 19.1984 24.4353 19.125C24.4185 19.1098 24.4018 19.0972 24.3853 19.0873C24.3685 19.0721 24.3504 19.0583 24.3311 19.0459C24.3716 19.215 24.4323 19.3871 24.5132 19.5622C24.5939 19.732 24.6852 19.9012 24.7872 20.0699C24.8864 20.2361 24.992 20.3979 25.1041 20.5555C25.216 20.7076 25.3261 20.8505 25.4343 20.9842L25.5111 21.0766C25.5964 21.1793 25.6846 21.2845 25.7755 21.3923C25.8636 21.4975 25.9581 21.5957 26.0589 21.687C26.1009 21.725 26.1534 21.7598 26.2165 21.7914C26.2439 21.8061 26.2701 21.8222 26.2951 21.8396C26.3197 21.8518 26.3475 21.8718 26.3783 21.8996C26.4455 21.9605 26.475 22.0178 26.4671 22.0717C26.4619 22.1281 26.4339 22.1843 26.3832 22.2403C26.3528 22.2739 26.3158 22.3092 26.2722 22.3461C26.2311 22.3802 26.1858 22.4106 26.1364 22.4371C26.0922 22.4633 26.0451 22.4844 25.9951 22.5003C25.9451 22.5161 25.8958 22.5199 25.8473 22.5116C25.7957 22.4955 25.6839 22.4249 25.5119 22.2997C25.3424 22.1718 25.1351 22.0097 24.8901 21.8134C24.6476 21.6142 24.377 21.3898 24.0785 21.1399C23.7772 20.8876 23.4689 20.6289 23.1535 20.3639C22.8408 20.096 22.5307 19.8308 22.2235 19.568C21.9189 19.3025 21.638 19.0585 21.381 18.836C21.1265 18.6107 20.9055 18.4158 20.7182 18.2514C20.5281 18.0844 20.3952 17.9667 20.3196 17.8983C20.2636 17.8476 20.2195 17.795 20.1874 17.7404C20.155 17.6805 20.1718 17.6142 20.2377 17.5414C20.3061 17.4658 20.3889 17.4109 20.4861 17.3766C20.5805 17.3399 20.6781 17.339 20.7787 17.3741C20.795 17.3786 20.8463 17.4148 20.9325 17.4827C21.016 17.5481 21.1233 17.635 21.2544 17.7434C21.3826 17.8493 21.5305 17.973 21.6979 18.1143C21.8626 18.2532 22.0343 18.3984 22.2129 18.5499C22.3888 18.6989 22.5661 18.8491 22.7447 19.0006C22.9234 19.1521 23.0908 19.2935 23.2471 19.4248L23.8877 19.9664C23.8313 19.8542 23.7783 19.7299 23.7288 19.5933C23.6792 19.4567 23.6443 19.3208 23.6242 19.1854C23.6066 19.0473 23.6094 18.9148 23.6325 18.788C23.6581 18.6584 23.7165 18.5432 23.8078 18.4424C23.9193 18.3191 24.0389 18.2517 24.1666 18.24C24.2944 18.2283 24.4211 18.2487 24.5467 18.3013C24.6748 18.351 24.7973 18.4211 24.9141 18.5115C25.0309 18.602 25.1341 18.6877 25.2237 18.7688C25.2797 18.8195 25.333 18.8703 25.3837 18.9213C25.4369 18.9694 25.4888 19.019 25.5394 19.0699C25.5929 19.1234 25.6464 19.1769 25.6999 19.2304C25.7531 19.2785 25.8077 19.3279 25.8637 19.3786C26.0569 19.5535 26.2594 19.7292 26.4714 19.9058C26.6806 20.0799 26.8984 20.2388 27.1248 20.3826L27.1912 20.4274C27.2131 20.437 27.2365 20.4505 27.2614 20.468C27.2864 20.4855 27.3086 20.5031 27.3282 20.5208Z" fill="#C08332"/>
<path d="M26.5705 15.0808C26.6137 15.1282 26.6344 15.1733 26.6325 15.2159C26.6307 15.2533 26.602 15.2974 26.5462 15.3483C26.5211 15.3712 26.4795 15.4041 26.4214 15.4468C26.3608 15.4868 26.2962 15.5253 26.2276 15.5623C26.1619 15.5967 26.0967 15.6204 26.0319 15.6335C25.9699 15.644 25.9224 15.6311 25.8893 15.5949C25.8792 15.5837 25.8553 15.5492 25.8179 15.4914C25.7779 15.4307 25.7368 15.366 25.6945 15.2973C25.655 15.2259 25.6178 15.1627 25.5829 15.1077C25.5507 15.0501 25.5349 15.016 25.5354 15.0053L25.5393 15.0095C25.5328 14.9744 25.5369 14.9452 25.5513 14.9218C25.5657 14.8984 25.5827 14.8778 25.6022 14.86C25.6273 14.8371 25.6632 14.812 25.7099 14.7847C25.7569 14.7521 25.8062 14.725 25.858 14.7033C25.9101 14.6763 25.9617 14.6573 26.013 14.6462C26.0643 14.6352 26.1043 14.6371 26.133 14.6518C26.1618 14.6664 26.194 14.6933 26.2296 14.7323C26.2655 14.7661 26.296 14.7996 26.3212 14.8328C26.3314 14.8439 26.3427 14.8592 26.3552 14.8784C26.3679 14.8924 26.3781 14.9036 26.3857 14.9119C26.3985 14.9259 26.4112 14.9398 26.4239 14.9538C26.4394 14.9652 26.455 14.9766 26.4705 14.988C26.486 14.9994 26.5014 15.0135 26.5167 15.0302C26.5347 15.0444 26.5527 15.0612 26.5705 15.0808ZM29.7683 18.2747C29.8268 18.3388 29.8535 18.3989 29.8482 18.4548C29.8432 18.5053 29.8086 18.5599 29.7445 18.6184C29.711 18.6489 29.6695 18.6791 29.6201 18.7089C29.5734 18.7362 29.5241 18.7607 29.4723 18.7824C29.418 18.8013 29.3639 18.8148 29.3101 18.8231C29.2562 18.8313 29.2082 18.8291 29.166 18.8165C29.1396 18.8099 29.0827 18.7672 28.9955 18.6884C28.9082 18.6095 28.8032 18.5085 28.6806 18.3852C28.5607 18.2594 28.4254 18.1196 28.2747 17.9657C28.1269 17.8092 27.9778 17.6513 27.8273 17.4921C27.6797 17.3303 27.5359 17.1726 27.3959 17.0192C27.2559 16.8658 27.1337 16.7318 27.0294 16.6175L26.7354 16.2952C26.7099 16.2674 26.6845 16.2394 26.659 16.2116C26.6364 16.1811 26.6203 16.1523 26.6108 16.1251C26.6016 16.0927 26.6004 16.0605 26.6073 16.0287C26.6168 15.9944 26.6412 15.9595 26.6802 15.9238C26.803 15.8118 26.924 15.7653 27.0435 15.7841C27.1632 15.7976 27.2822 15.8552 27.4004 15.9568C27.5697 16.1143 27.7347 16.2756 27.8955 16.4406C28.0566 16.6004 28.2189 16.7642 28.3823 16.9321C28.5304 17.0832 28.6758 17.2342 28.8186 17.3851C28.9616 17.5307 29.1088 17.6724 29.2602 17.8103C29.291 17.8385 29.3206 17.8652 29.3488 17.8906C29.377 17.9159 29.4067 17.94 29.4377 17.9628C29.4942 18.0135 29.5507 18.0642 29.6071 18.1149C29.6611 18.1629 29.7148 18.2161 29.7683 18.2747Z" fill="#C08332"/>
<path d="M32.4217 16.3668C32.4739 16.4363 32.4868 16.4974 32.4603 16.5503C32.437 16.6009 32.3966 16.6478 32.3392 16.6909C32.2878 16.7294 32.2331 16.7634 32.175 16.7929C32.1221 16.8232 32.0651 16.8447 32.0039 16.8576C31.9458 16.8682 31.8865 16.8678 31.8261 16.8566C31.7686 16.843 31.7124 16.812 31.6572 16.7637C31.4789 16.6143 31.3221 16.4558 31.1868 16.2882C31.0492 16.1176 30.9113 15.9401 30.773 15.7559L30.3546 15.1987C30.1642 14.9451 29.9775 14.6744 29.7945 14.3867C29.6093 14.096 29.4335 13.8148 29.2672 13.543C29.2604 13.5339 29.254 13.5222 29.248 13.5079C29.2419 13.4935 29.2366 13.4833 29.2321 13.4773C29.2101 13.4418 29.1875 13.4021 29.164 13.3584C29.1406 13.3146 29.1236 13.273 29.113 13.2338C29.1032 13.1892 29.1024 13.1473 29.1107 13.108C29.122 13.0665 29.1488 13.0298 29.191 12.9981C29.2394 12.9618 29.2926 12.9384 29.3507 12.9278C29.4097 12.9119 29.4682 12.908 29.5264 12.9163C29.5823 12.9216 29.6362 12.9401 29.6884 12.9717C29.7435 13.0012 29.7893 13.04 29.8255 13.0884C29.8641 13.1397 29.9056 13.1982 29.9502 13.2639C29.9926 13.3266 30.0311 13.3874 30.0659 13.4462C30.0772 13.4614 30.0882 13.4791 30.0988 13.4995C30.1124 13.5176 30.1233 13.5353 30.1317 13.5527C30.1105 13.4364 30.093 13.3125 30.0794 13.1811C30.0634 13.0467 30.0619 12.9157 30.0746 12.788C30.0881 12.6551 30.119 12.5327 30.1673 12.4209C30.2186 12.3068 30.2971 12.2101 30.4028 12.1307C30.4904 12.065 30.5731 12.0241 30.6508 12.0082C30.7286 11.9923 30.8034 11.9976 30.8752 12.024C30.9477 12.0451 31.0149 12.0843 31.0769 12.1417C31.1419 12.1968 31.2027 12.2621 31.2594 12.3376C31.3365 12.4403 31.4117 12.5467 31.485 12.657C31.5561 12.7642 31.6272 12.8714 31.6982 12.9786C31.7685 13.0911 31.8392 13.2009 31.9103 13.3081C31.9813 13.4154 32.0565 13.5218 32.1359 13.6275C32.2311 13.7544 32.3328 13.8835 32.4408 14.0148C32.5467 14.1432 32.6521 14.2647 32.7571 14.3794C32.8599 14.4912 32.9563 14.5912 33.0462 14.6795C33.1339 14.7648 33.2056 14.829 33.2615 14.872C33.3076 14.9082 33.3594 14.952 33.4168 15.0033C33.475 15.0494 33.534 15.0996 33.5937 15.1539C33.6541 15.203 33.7104 15.2528 33.7625 15.3034C33.8147 15.3539 33.8578 15.4019 33.8918 15.4472C33.9417 15.5136 33.9462 15.5763 33.9055 15.6352C33.8677 15.6919 33.8232 15.7395 33.7719 15.7781C33.7205 15.8166 33.6582 15.8563 33.585 15.8971C33.517 15.9387 33.4472 15.9652 33.3755 15.9766C33.278 15.9788 33.1881 15.9472 33.1058 15.8815C33.0264 15.8136 32.9543 15.7426 32.8893 15.6687L32.7838 15.5566C32.7203 15.4909 32.6368 15.4048 32.5333 15.2984C32.4298 15.1919 32.3172 15.0734 32.1955 14.9428C32.0768 14.81 31.9563 14.6714 31.8339 14.5272C31.7092 14.38 31.5924 14.2339 31.4836 14.089C31.3861 13.9591 31.2965 13.8304 31.2148 13.7028C31.1362 13.5729 31.0565 13.4416 30.9756 13.3087C30.934 13.2407 30.9 13.186 30.8735 13.1445C30.8471 13.1029 30.813 13.0482 30.7715 12.9802C30.7836 13.1222 30.8082 13.2808 30.8454 13.456C30.8825 13.6312 30.9271 13.8102 30.9793 13.9929C31.0293 14.1727 31.0815 14.346 31.136 14.5129C31.1934 14.6775 31.2475 14.8187 31.2982 14.9365L31.3459 15.0566C31.367 15.1162 31.3897 15.1747 31.4139 15.2321C31.4412 15.2873 31.4706 15.336 31.5024 15.3782C31.5432 15.4326 31.5938 15.4937 31.6543 15.5617C31.7125 15.6266 31.7699 15.6874 31.8266 15.744C31.8923 15.8127 31.9607 15.8818 32.0318 15.9512C32.0363 15.9572 32.0541 15.9746 32.085 16.0033C32.116 16.032 32.1516 16.0667 32.1916 16.1075C32.2316 16.1482 32.2725 16.1931 32.314 16.2422C32.3564 16.286 32.3923 16.3275 32.4217 16.3668Z" fill="#C08332"/>
<path d="M37.5937 11.363C37.6126 11.3956 37.6256 11.4404 37.6329 11.4975C37.6412 11.5495 37.6448 11.6084 37.6441 11.6745C37.6445 11.7354 37.6427 11.7998 37.6387 11.8678C37.6347 11.9357 37.6293 11.9978 37.6227 12.0541L37.6093 12.1997L37.61 12.3697L37.6148 12.5243C37.6561 12.5876 37.7018 12.6549 37.7522 12.7261C37.8026 12.7974 37.8508 12.8654 37.8972 12.9301C38.1288 13.2452 38.3598 13.5697 38.5893 13.9036C38.822 14.2356 39.0363 14.5697 39.2324 14.9057C39.3368 15.0851 39.4278 15.2748 39.505 15.4746C39.5841 15.6777 39.6254 15.8765 39.6294 16.0708C39.6384 16.2665 39.6007 16.4526 39.5155 16.629C39.4303 16.8054 39.2784 16.9573 39.0598 17.0847C38.9097 17.1721 38.7662 17.2186 38.6295 17.2239C38.4928 17.2293 38.3641 17.2037 38.2438 17.1472C38.1288 17.0919 38.0201 17.0109 37.9186 16.904C37.8171 16.7972 37.7271 16.6768 37.6492 16.5431C37.4951 16.2788 37.3704 15.9932 37.2743 15.6862C37.1786 15.3793 37.1025 15.0652 37.0463 14.7438C36.9934 14.4206 36.9564 14.0947 36.9354 13.766C36.9161 13.4406 36.9045 13.1241 36.8998 12.8163C36.8962 12.8098 36.8922 12.8033 36.8886 12.7968C36.8828 12.787 36.8726 12.7732 36.8578 12.7556C36.861 12.8586 36.86 12.9687 36.8538 13.0859C36.8491 13.1978 36.8317 13.3064 36.8009 13.4116C36.7737 13.5149 36.7316 13.6115 36.6751 13.7015C36.6214 13.7895 36.5456 13.8621 36.4478 13.9192C36.3107 13.999 36.1775 14.0329 36.0481 14.0209C35.9187 14.0089 35.7968 13.9685 35.6824 13.8997C35.5712 13.829 35.469 13.7399 35.3758 13.6325C35.2827 13.5251 35.2047 13.4175 35.1419 13.3099C35.0697 13.1859 35.0049 13.0598 34.9476 12.9314C34.8935 12.8012 34.843 12.6733 34.796 12.5477C34.7222 12.3459 34.6479 12.1248 34.5732 11.8842C34.4999 11.6384 34.4399 11.3893 34.3933 11.1367C34.3447 10.8809 34.3152 10.6315 34.3047 10.3884C34.2974 10.1435 34.3227 9.91681 34.3804 9.70835L34.3996 9.65125C34.4172 9.58411 34.4424 9.51483 34.4751 9.44333C34.5058 9.36858 34.5506 9.31413 34.6093 9.27987C34.6452 9.25895 34.6819 9.25068 34.7194 9.25503C34.7601 9.2575 34.7998 9.26935 34.8384 9.29056C34.8751 9.30851 34.9088 9.33258 34.9395 9.36278C34.9735 9.39106 35 9.42151 35.019 9.45414C35.0418 9.49329 35.0519 9.54426 35.0491 9.60706L35.0589 9.60136C35.2579 9.48535 35.4449 9.49873 35.62 9.64153C35.6749 9.65324 35.7238 9.67717 35.7667 9.71335C35.8129 9.74761 35.8512 9.79086 35.8816 9.84303C35.8969 9.86913 35.9124 9.89948 35.9281 9.93399C35.9419 9.96528 35.9532 9.99584 35.9619 10.0258C35.9725 10.0589 35.9838 10.0895 35.9957 10.1175C36.0077 10.1455 36.0203 10.1709 36.0336 10.1938C36.0773 10.2688 36.1332 10.3608 36.2011 10.4699C36.269 10.5789 36.3415 10.6919 36.4184 10.8088C36.4952 10.9257 36.571 11.041 36.6461 11.1547C36.7226 11.2632 36.7885 11.3579 36.8447 11.4389C36.8502 11.3963 36.861 11.355 36.8774 11.315C36.8966 11.2731 36.9274 11.2399 36.9698 11.2151C37.0057 11.1942 37.0543 11.1835 37.1152 11.183C37.1794 11.1805 37.2421 11.1875 37.3041 11.2039C37.3693 11.2183 37.4284 11.2407 37.481 11.2712C37.5354 11.2965 37.5727 11.3271 37.5937 11.363ZM35.0726 10.131C35.0612 10.1115 35.0488 10.0902 35.0355 10.0674C35.0254 10.0427 35.016 10.0153 35.0074 9.98544L34.9988 10.0495C34.9898 10.094 34.9815 10.136 34.9739 10.1754C34.9662 10.2149 34.9612 10.2549 34.9587 10.2957C34.9462 10.4691 34.9653 10.6744 35.016 10.9114C35.0681 11.1433 35.1367 11.381 35.2216 11.6243C35.3047 11.8643 35.3957 12.0954 35.4946 12.3175C35.5967 12.5378 35.6915 12.7229 35.779 12.873C35.8227 12.9481 35.8681 13.0221 35.9151 13.0953C35.9621 13.1684 36.0212 13.2323 36.0924 13.287C36.1095 13.2114 36.1166 13.1373 36.1137 13.0648C36.1088 12.9889 36.1014 12.9124 36.0913 12.8352C36.0699 12.6335 36.0235 12.4114 35.9521 12.1689C35.8807 11.9264 35.7958 11.6831 35.6972 11.4389C35.5986 11.1948 35.4947 10.9603 35.3855 10.7354C35.2744 10.5073 35.1701 10.3058 35.0726 10.131ZM38.491 15.1411C38.3616 14.9193 38.2351 14.7133 38.1111 14.5232C37.9893 14.3364 37.8537 14.1378 37.7047 13.9273C37.7279 14.1019 37.7551 14.2871 37.7862 14.4832C37.8225 14.6805 37.8653 14.8741 37.9149 15.0638C37.9661 15.2568 38.0248 15.4435 38.0904 15.6237C38.156 15.804 38.2318 15.9675 38.3174 16.1144L38.3373 16.1486C38.3808 16.2237 38.4323 16.3007 38.4917 16.3799C38.5526 16.4622 38.6255 16.516 38.7103 16.541L38.764 16.5096C38.8293 16.4716 38.8699 16.4174 38.8855 16.347C38.9065 16.2779 38.9116 16.2006 38.901 16.115C38.8905 16.0293 38.8688 15.9394 38.8358 15.845C38.8024 15.7507 38.7644 15.6592 38.7216 15.5705C38.6788 15.4819 38.6353 15.4001 38.5914 15.325C38.5512 15.2481 38.5175 15.1868 38.491 15.1411Z" fill="#C08332"/>
<path d="M52.8621 7.76331C52.8744 7.83781 52.8642 7.89122 52.8312 7.92352C52.799 7.95959 52.7493 7.98323 52.6822 7.99447C52.5075 8.02383 52.373 7.99853 52.2791 7.91852C52.1888 7.83792 52.1123 7.72438 52.0496 7.57791C52.0297 7.52766 52.0097 7.47738 51.9898 7.42713C51.9695 7.37315 51.951 7.32069 51.9347 7.26979C51.9191 7.22262 51.906 7.19036 51.8955 7.17299C51.885 7.15563 51.8716 7.12148 51.8553 7.07061C51.8288 7.18612 51.7918 7.30905 51.7451 7.43949C51.7008 7.56558 51.6447 7.68606 51.5758 7.80102C51.5065 7.91221 51.4231 8.00853 51.3256 8.08996C51.2321 8.17077 51.1219 8.22178 50.9954 8.24302C50.8612 8.26554 50.7441 8.25259 50.6441 8.2043C50.5433 8.15224 50.4588 8.08217 50.3906 7.9941C50.3254 7.90166 50.2714 7.79772 50.2289 7.68229C50.1905 7.56624 50.1622 7.45421 50.1441 7.34618C50.1017 7.09294 50.0799 6.81513 50.0789 6.51278C50.081 6.20607 50.1021 5.89813 50.1423 5.58892C50.1815 5.27594 50.238 4.97355 50.3116 4.68167C50.3845 4.38609 50.4747 4.12398 50.5817 3.8954L50.5828 3.90098L50.6078 3.84508C50.6393 3.78236 50.676 3.71496 50.7176 3.64289C50.7622 3.56648 50.8217 3.52202 50.896 3.50953C50.9671 3.49766 51.0338 3.51901 51.0965 3.57357C51.1585 3.62442 51.2064 3.68146 51.2401 3.74476C51.3401 3.74716 51.4224 3.75825 51.487 3.77804C51.5508 3.7941 51.603 3.81981 51.6432 3.85516C51.6838 3.8905 51.7143 3.93517 51.7349 3.98919C51.7549 4.03943 51.7701 4.09624 51.7806 4.15954C51.785 4.18561 51.7897 4.21356 51.7947 4.24336C51.7998 4.27313 51.8027 4.30325 51.8042 4.33367C51.8053 4.36409 51.8092 4.3998 51.8161 4.44076C51.823 4.48173 51.8296 4.51896 51.835 4.5525C51.8412 4.58973 51.8549 4.63719 51.8763 4.6949C51.901 4.752 51.9264 4.81095 51.9517 4.87178L52.0257 5.07194C52.0623 5.17682 52.0978 5.29722 52.1323 5.43314C52.17 5.56844 52.2099 5.70345 52.2519 5.83813C52.2903 5.97713 52.3284 6.11246 52.3657 6.24403C52.4024 6.37189 52.4379 6.49041 52.4712 6.59964L52.7442 7.40397L52.7769 7.49616C52.7925 7.54333 52.8073 7.58676 52.8218 7.62646C52.8396 7.66557 52.853 7.71118 52.8621 7.76331ZM51.0436 4.76563C51.0425 4.7582 51.0389 4.74732 51.0323 4.73308C51.0254 4.71506 51.0189 4.69708 51.012 4.67906C50.9569 4.87595 50.9138 5.088 50.8833 5.31528C50.8554 5.53816 50.838 5.76511 50.8308 5.99609C50.8268 6.22267 50.8322 6.44958 50.8474 6.67679C50.8656 6.89968 50.8913 7.1098 50.9243 7.3072C50.9276 7.3258 50.9305 7.34259 50.9326 7.35745C50.9352 7.37235 50.9395 7.38696 50.946 7.40121L50.9468 7.40679C51.0131 7.25402 51.0592 7.06057 51.0849 6.82648C51.1139 6.58804 51.1302 6.34216 51.1335 6.08886C51.1364 5.83186 51.1277 5.58631 51.1077 5.35226C51.0907 5.11389 51.0693 4.91833 51.0436 4.76563Z" fill="#C08332"/>
<path d="M57.5656 4.24222C57.574 4.39681 57.5758 4.5688 57.5711 4.75815C57.5656 4.94377 57.5537 5.13729 57.5341 5.33879C57.5149 5.54029 57.4844 5.74425 57.4424 5.95076C57.4043 6.15327 57.3543 6.34886 57.2926 6.53749C57.231 6.72615 57.1556 6.90231 57.0661 7.06599C56.9801 7.22569 56.8797 7.36161 56.7648 7.4737C56.6821 7.55383 56.5871 7.61944 56.4802 7.67064C56.3772 7.72534 56.2692 7.75576 56.1561 7.76189C56.1148 7.76413 56.0709 7.75895 56.0249 7.7463C55.9792 7.73741 55.9436 7.7091 55.9183 7.66132C55.8349 7.65824 55.7511 7.64577 55.6667 7.62387C55.5862 7.60552 55.5173 7.55629 55.46 7.47617C55.4473 7.45039 55.4361 7.41885 55.4267 7.38155C55.4169 7.34424 55.4074 7.30505 55.3977 7.26398C55.3926 7.24534 55.3879 7.22856 55.3835 7.21369C55.3788 7.19502 55.3741 7.17827 55.3694 7.16341C55.2233 6.49054 55.1113 5.81586 55.0329 5.13932C54.9586 4.46261 54.9028 3.77919 54.8655 3.0891C54.8622 3.02877 54.8564 2.92318 54.8484 2.77234C54.8401 2.62151 54.831 2.44993 54.8205 2.25761C54.814 2.06509 54.8049 1.86324 54.7933 1.65207C54.7857 1.44069 54.7788 1.24252 54.7726 1.05754C54.7665 0.872558 54.7636 0.713875 54.7639 0.581484C54.7639 0.445322 54.7668 0.358184 54.7723 0.320067C54.7846 0.266458 54.8031 0.221971 54.8278 0.186606C54.852 0.15124 54.8966 0.131825 54.9608 0.128358C55.1377 0.118775 55.2671 0.168509 55.3487 0.277559C55.4339 0.382636 55.4807 0.516245 55.4897 0.678398L55.5681 2.13209C55.5778 2.30932 55.5865 2.46959 55.5942 2.61288C55.6018 2.75241 55.609 2.89004 55.6166 3.0258C55.6275 3.15758 55.6388 3.29501 55.65 3.4381C55.6616 3.57742 55.6757 3.73362 55.6924 3.9067C55.7323 3.80243 55.7816 3.69954 55.8403 3.59801C55.903 3.4963 55.9734 3.4036 56.0524 3.31992C56.1311 3.23625 56.2199 3.16715 56.3189 3.11262C56.4182 3.0581 56.5299 3.02746 56.6542 3.02074C56.8355 3.01095 56.9827 3.0427 57.0965 3.11597C57.2136 3.18904 57.3042 3.28627 57.3673 3.40765C57.4344 3.52506 57.4812 3.65868 57.5084 3.80852C57.5392 3.9581 57.558 4.10268 57.5656 4.24222ZM56.7782 4.15431C56.7739 4.0789 56.7659 3.99613 56.7532 3.90604C56.7445 3.81577 56.7177 3.73779 56.6727 3.67217C56.6401 3.70038 56.6114 3.73028 56.5868 3.7619C56.5658 3.79329 56.5429 3.82853 56.5186 3.86769L56.5081 3.88527V3.87961C56.4117 4.05878 56.3359 4.26521 56.2804 4.4989C56.229 4.73241 56.1891 4.9747 56.1608 5.22583C56.1365 5.473 56.1235 5.71953 56.1216 5.96544C56.1195 6.20761 56.1238 6.42673 56.1343 6.62283C56.1365 6.6643 56.1401 6.72651 56.1445 6.80946C56.1525 6.88846 56.1637 6.95404 56.1778 7.00621C56.3181 6.87385 56.4291 6.68631 56.5103 6.44363C56.5955 6.19699 56.6589 5.93451 56.7006 5.65616C56.7456 5.37385 56.7724 5.09821 56.7804 4.82928C56.7887 4.56031 56.788 4.33532 56.7782 4.15431Z" fill="#C08332"/>
<path d="M62.7853 5.27209C62.7661 5.60008 62.719 5.92644 62.6432 6.25112C62.5714 6.57226 62.4424 6.87306 62.256 7.15348C62.198 7.23712 62.1328 7.31843 62.0603 7.3974C61.9877 7.47262 61.908 7.53987 61.8213 7.59915C61.7383 7.66238 61.6466 7.71001 61.5465 7.74199C61.4497 7.77799 61.3486 7.79289 61.2431 7.78676C61.0771 7.77708 60.9342 7.72905 60.8146 7.64262C60.6982 7.56021 60.5985 7.45413 60.5155 7.32445C60.4361 7.19122 60.3708 7.0437 60.3197 6.88183C60.2726 6.71644 60.2371 6.54982 60.2128 6.38193C60.1925 6.21052 60.1794 6.0452 60.1736 5.88601C60.1714 5.727 60.174 5.58717 60.1809 5.46652C60.1888 5.33082 60.2033 5.18222 60.224 5.02078C60.2447 4.8593 60.2733 4.69453 60.3096 4.52642C60.3494 4.35853 60.3969 4.19296 60.452 4.02971C60.5104 3.86668 60.5818 3.71572 60.6656 3.57686C60.7493 3.43422 60.8476 3.30942 60.9596 3.20247C61.072 3.09174 61.2 3.00652 61.3435 2.94678L61.3432 2.95243C61.4675 2.89537 61.59 2.87035 61.7104 2.87738C61.7858 2.88177 61.8435 2.90213 61.883 2.93848C61.9225 2.97106 61.9384 3.02493 61.9301 3.10012C62.1353 3.14989 62.2974 3.25957 62.4159 3.42914C62.5348 3.59872 62.6218 3.79294 62.6773 4.01176C62.7364 4.23085 62.7705 4.45413 62.7799 4.68166C62.7933 4.90941 62.7951 5.10619 62.7853 5.27209ZM61.5897 3.78387C61.5255 3.78014 61.4668 3.75215 61.4131 3.69984C61.3352 3.80501 61.2674 3.92776 61.2101 4.06818C61.1528 4.20482 61.105 4.34766 61.0658 4.49669C61.031 4.64222 61.0035 4.79002 60.9832 4.94015C60.9632 5.09031 60.9494 5.23134 60.9415 5.36331C60.9353 5.47265 60.9328 5.61433 60.9339 5.78842C60.9353 5.95874 60.9462 6.13149 60.9661 6.30667C60.99 6.48206 61.0256 6.6468 61.0734 6.80091C61.1249 6.95521 61.196 7.07093 61.2859 7.14804C61.4066 7.08699 61.5092 6.98515 61.5933 6.8425C61.681 6.69632 61.7528 6.53593 61.8083 6.36137C61.8641 6.18681 61.9047 6.00949 61.9301 5.82942C61.9595 5.64957 61.978 5.49552 61.9856 5.36737C61.991 5.27311 61.9925 5.15024 61.9899 4.99877C61.9874 4.84734 61.9772 4.69355 61.9602 4.53744C61.9428 4.37756 61.9138 4.22831 61.8725 4.08975C61.8351 3.9514 61.7829 3.84619 61.7151 3.77416C61.6803 3.78351 61.6386 3.78674 61.5897 3.78387Z" fill="#C08332"/>
<path d="M67.8463 4.56066C67.8402 4.59786 67.8297 4.63629 67.8152 4.67595C67.8007 4.71561 67.7869 4.75154 67.7735 4.78377C67.7593 4.82343 67.7448 4.86124 67.7311 4.89717C67.718 4.92936 67.7086 4.96225 67.7028 4.99575C67.6433 5.34186 67.5889 5.6908 67.54 6.04257C67.495 6.39126 67.4726 6.74564 67.4718 7.10575C67.4675 7.24294 67.4675 7.37704 67.4718 7.50806C67.4758 7.63908 67.4838 7.7726 67.4947 7.90863L67.5001 7.94401L67.5019 7.93288C67.5088 7.96083 67.5132 7.99034 67.5157 8.02141C67.5222 8.04937 67.523 8.07826 67.5179 8.10802C67.511 8.14895 67.494 8.18053 67.4671 8.20275C67.4439 8.22559 67.4164 8.24191 67.3841 8.25166C67.3518 8.26145 67.3167 8.26497 67.2786 8.26232C67.2445 8.26025 67.2126 8.25666 67.1829 8.25155C67.06 8.23042 66.9636 8.20043 66.8936 8.16157C66.828 8.11962 66.7772 8.07065 66.741 8.01456C66.7051 7.95478 66.6822 7.8876 66.6721 7.81306C66.6656 7.73914 66.6623 7.65811 66.6619 7.56995L66.6627 7.46659C66.6569 7.41191 66.6569 7.35449 66.6634 7.29431C66.6648 7.26389 66.6634 7.25022 66.659 7.25331C66.659 7.25331 66.6598 7.23808 66.6612 7.20766C66.593 7.29177 66.5144 7.38168 66.4252 7.47746C66.34 7.57013 66.245 7.65532 66.1399 7.73298C66.0387 7.80759 65.9325 7.86788 65.8212 7.91385C65.7106 7.95612 65.5975 7.96732 65.4822 7.94749C65.322 7.91994 65.2056 7.85011 65.1331 7.73798C65.0639 7.6265 65.0211 7.49838 65.0037 7.35362C64.987 7.20516 64.9877 7.05583 65.0059 6.9057C65.0247 6.75181 65.0439 6.61904 65.0631 6.50742C65.136 6.08314 65.2216 5.66481 65.3191 5.25246C65.4206 4.84072 65.5243 4.42747 65.6302 4.01269C65.632 4.00152 65.6345 3.98662 65.6378 3.96802C65.6447 3.95004 65.649 3.93547 65.6512 3.9243C65.6639 3.87286 65.6758 3.82511 65.6871 3.7811C65.6987 3.73709 65.7153 3.69587 65.7371 3.65751L65.7364 3.66309C65.7614 3.6061 65.7893 3.56682 65.8198 3.54525C65.8542 3.52432 65.901 3.51898 65.9604 3.52922C66.0163 3.53882 66.0703 3.55959 66.1221 3.59152C66.1747 3.61974 66.2204 3.65628 66.2584 3.7012C66.2976 3.74238 66.3259 3.7894 66.3436 3.84226C66.365 3.89577 66.3705 3.95229 66.3603 4.01182C66.3552 4.04162 66.3491 4.07697 66.3422 4.1179C66.3349 4.15883 66.3269 4.19388 66.3182 4.223C66.3135 4.24906 66.3059 4.28223 66.2954 4.32255C66.2889 4.35975 66.2834 4.39139 66.2791 4.41743C66.1877 4.76959 66.1043 5.12118 66.0286 5.47219C65.9535 5.8195 65.885 6.17363 65.8227 6.53465C65.8056 6.63514 65.7882 6.73564 65.7708 6.8361C65.7574 6.93724 65.7512 7.03966 65.7527 7.14335C65.9024 7.00816 66.0427 6.82729 66.1736 6.60074C66.3052 6.37045 66.4241 6.12462 66.5303 5.86315C66.6409 5.59865 66.7381 5.33559 66.8214 5.07402C66.9088 4.80936 66.9799 4.57444 67.0346 4.36924C67.0364 4.35808 67.0386 4.34503 67.0411 4.33016C67.0477 4.31591 67.0517 4.30319 67.0535 4.29202C67.0643 4.25175 67.0749 4.21328 67.085 4.1767C67.0952 4.14016 67.114 4.10702 67.1423 4.07736C67.1481 4.04387 67.1561 4.00885 67.1659 3.97227C67.176 3.93569 67.1912 3.90378 67.2112 3.87659C67.2318 3.84563 67.2569 3.82312 67.2862 3.80898C67.3192 3.79549 67.3616 3.79324 67.4138 3.8022C67.5625 3.82779 67.672 3.8945 67.7416 4.00225C67.8115 4.1063 67.8384 4.2297 67.8213 4.3724C67.8347 4.40539 67.8427 4.4374 67.8453 4.46843C67.8518 4.49642 67.8521 4.52717 67.8463 4.56066Z" fill="#C08332"/>
<path d="M71.0559 9.04891C71.0443 9.08882 71.0254 9.12073 70.999 9.14458C70.9736 9.16481 70.9442 9.17804 70.9109 9.18428C70.8815 9.19153 70.85 9.19229 70.8163 9.1866C70.7851 9.18555 70.755 9.18087 70.726 9.17257C70.6861 9.16119 70.6404 9.14222 70.5889 9.11576C70.54 9.09397 70.4929 9.06674 70.4472 9.03404C70.4015 9.00138 70.3605 8.9661 70.3243 8.92822C70.2927 8.88776 70.2717 8.84444 70.2612 8.79829C70.25 8.75572 70.2492 8.68285 70.259 8.57964C70.2735 8.47381 70.2942 8.354 70.3207 8.22015C70.3482 8.08271 70.3794 7.93849 70.4149 7.78753C70.4512 7.63294 70.4853 7.48564 70.5175 7.3456C70.5534 7.20656 70.585 7.08207 70.6125 6.97211C70.6448 6.85954 70.6683 6.77601 70.6839 6.72156C70.7568 6.46738 70.8304 6.22332 70.9051 5.98938C70.9845 5.75286 71.0653 5.51086 71.148 5.26343C71.1298 5.25825 71.111 5.25488 71.0918 5.25332C71.0729 5.25176 71.0541 5.24839 71.0359 5.2432C70.9866 5.23697 70.9359 5.22841 70.884 5.2175C70.8358 5.20767 70.7865 5.19546 70.7354 5.18092C70.6738 5.1633 70.6227 5.13683 70.5817 5.10156C70.5407 5.06628 70.5309 5.01053 70.5527 4.93425C70.5788 4.84347 70.6194 4.77658 70.6749 4.73351C70.7303 4.69048 70.793 4.66325 70.8634 4.65183C70.9344 4.63679 71.0077 4.63421 71.0834 4.64407C71.1603 4.65031 71.2343 4.65966 71.3053 4.6721C71.3162 4.67522 71.3234 4.67728 71.3271 4.67833C71.3318 4.67576 71.3394 4.67601 71.3503 4.67913C71.3666 4.63657 71.3851 4.58498 71.4065 4.52429C71.4286 4.45994 71.4525 4.39019 71.4779 4.31496C71.516 4.19619 71.5576 4.07065 71.6033 3.93839C71.6501 3.80248 71.6947 3.67385 71.7371 3.55246C71.7806 3.42744 71.8216 3.31929 71.8593 3.228C71.8984 3.13307 71.9289 3.0672 71.951 3.03037C71.9829 2.98836 72.0137 2.95594 72.0438 2.93312C72.0775 2.91134 72.1272 2.90978 72.1924 2.92846C72.3375 2.96998 72.4368 3.04935 72.4897 3.16659C72.5427 3.28383 72.5492 3.41144 72.5097 3.54942C72.464 3.7092 72.4129 3.86741 72.3563 4.02406C72.3034 4.18173 72.2501 4.34125 72.1961 4.50257L72.1004 4.77567C72.1943 4.79072 72.2896 4.80033 72.3868 4.8045C72.4792 4.81124 72.5709 4.8198 72.6623 4.8302C72.7573 4.84162 72.8465 4.85924 72.9298 4.88313C73.0024 4.90387 73.0531 4.93994 73.0814 4.99131C73.1111 5.03902 73.1155 5.0992 73.0948 5.17182C73.072 5.25169 73.035 5.32561 72.9842 5.39355C72.9335 5.46152 72.866 5.50506 72.7819 5.52428L72.7874 5.52584C72.7707 5.52892 72.7243 5.52736 72.6474 5.52112C72.5717 5.51126 72.485 5.49828 72.3875 5.48222C72.2936 5.46714 72.1997 5.4521 72.1058 5.43705C72.0155 5.42306 71.9481 5.41164 71.9035 5.40279L71.8981 5.40123C71.8328 5.60251 71.7697 5.80245 71.7088 6.00112C71.6494 6.19617 71.5903 6.39538 71.5323 6.5987C71.4521 6.87829 71.3746 7.1781 71.2988 7.49815C71.2277 7.81563 71.1715 8.12168 71.1306 8.41632L71.1041 8.67386C71.1008 8.73973 71.0961 8.8051 71.0892 8.86992C71.0834 8.93115 71.0726 8.99079 71.0559 9.04891Z" fill="#C08332"/>
<path d="M88.0295 16.4158C87.9951 16.4609 87.9534 16.5002 87.9037 16.5337C87.8598 16.5665 87.8142 16.5982 87.767 16.6288C87.5705 16.7494 87.3679 16.8466 87.1594 16.9202C86.9535 16.9909 86.7472 17.0307 86.5409 17.0394C86.3346 17.0481 86.1291 17.0218 85.9242 16.9603C85.7194 16.8988 85.5207 16.7947 85.3286 16.648C85.0737 16.4531 84.8957 16.2317 84.7953 15.9839C84.6949 15.736 84.6452 15.4772 84.647 15.2076C84.651 14.935 84.6923 14.66 84.771 14.3828C84.8526 14.1078 84.9508 13.8454 85.0658 13.5957C85.23 13.2316 85.4105 12.88 85.6077 12.5411C85.8071 12.1993 86.0258 11.8723 86.2643 11.5602C86.4042 11.3771 86.5561 11.1938 86.72 11.0101C86.8871 10.8288 87.0637 10.6597 87.2504 10.5027C87.4389 10.3428 87.6369 10.2018 87.8442 10.0797C88.0538 9.95473 88.2699 9.85844 88.4928 9.79093C88.7176 9.72038 88.9482 9.68279 89.1849 9.67808C89.4242 9.67568 89.6682 9.71712 89.9169 9.80239C90.0093 9.83041 90.0981 9.86971 90.183 9.92032C90.2703 9.96793 90.353 10.0215 90.4309 10.0811C90.5868 10.2003 90.7159 10.3393 90.8181 10.4981C90.92 10.6569 90.9882 10.8229 91.0222 10.9962C91.0592 11.1717 91.0571 11.3484 91.0164 11.5263C90.9784 11.7065 90.8975 11.8776 90.7739 12.0397C90.7326 12.0937 90.6898 12.125 90.6448 12.1337C90.6003 12.1424 90.548 12.1238 90.4879 12.0779C90.3769 11.9931 90.3037 11.9086 90.2682 11.8245C90.2355 11.7426 90.2207 11.6597 90.2229 11.5759C90.225 11.4921 90.2366 11.4084 90.258 11.3247C90.2819 11.2434 90.2968 11.1619 90.3019 11.0804C90.3073 10.9989 90.2935 10.9172 90.2609 10.8353C90.2287 10.7534 90.1598 10.6724 90.0546 10.5922C89.9499 10.5119 89.8346 10.4573 89.7095 10.4282C89.5899 10.3985 89.4655 10.3868 89.3372 10.3932C89.2117 10.4019 89.0852 10.4242 88.958 10.4601C88.8361 10.4953 88.719 10.5365 88.607 10.5839C88.3021 10.7217 88.0222 10.9046 87.767 11.1327C87.5143 11.3579 87.2859 11.6039 87.0818 11.871C87.0129 11.961 86.9267 12.0804 86.8226 12.229C86.724 12.377 86.6167 12.5422 86.501 12.7247C86.3883 12.9095 86.2737 13.1094 86.157 13.3244C86.0424 13.5363 85.9362 13.7499 85.8387 13.9651C85.7437 14.1825 85.6621 14.3982 85.5936 14.6121C85.5283 14.8283 85.4867 15.0292 85.4682 15.2149C85.4529 15.4028 85.4664 15.5721 85.508 15.7228C85.5526 15.8758 85.6382 16.0004 85.764 16.0967C85.8931 16.1953 86.0323 16.2494 86.182 16.259C86.3335 16.2656 86.4829 16.2443 86.6301 16.195C86.7824 16.145 86.9267 16.0772 87.0633 15.9915C87.2054 15.9051 87.3302 15.8198 87.4375 15.7354C87.4694 15.7122 87.4973 15.6909 87.5219 15.6715C87.5491 15.6544 87.5756 15.6414 87.6013 15.6326C87.6303 15.626 87.6586 15.6263 87.6865 15.6333C87.7145 15.6404 87.7478 15.6588 87.7866 15.6886C87.8287 15.7207 87.8714 15.7675 87.9146 15.8291C87.9632 15.8899 88.0016 15.9549 88.0295 16.0238C88.0607 16.0951 88.0781 16.1655 88.0821 16.235C88.0861 16.3046 88.0687 16.3648 88.0295 16.4158Z" fill="#C08332"/>
<path d="M90.6946 20.8864C90.6413 20.9398 90.5851 20.9611 90.5263 20.9505C90.4676 20.9398 90.4129 20.9091 90.3621 20.8584C90.3302 20.8263 90.2994 20.7903 90.27 20.7502C90.2432 20.7075 90.2178 20.6661 90.1939 20.6261C90.1537 20.554 90.1297 20.4899 90.1217 20.4338C90.1163 20.3804 90.1203 20.331 90.1337 20.2856C90.1497 20.2375 90.174 20.1921 90.2059 20.1494C90.2407 20.1094 90.2791 20.0653 90.3219 20.0172C90.3353 20.0039 90.3462 19.9905 90.3541 19.9771C90.3647 19.9665 90.3755 19.9558 90.386 19.9451C90.5303 19.7849 90.6786 19.6206 90.8305 19.4524C90.9857 19.2868 91.139 19.1279 91.2913 18.9757C91.3685 18.8983 91.4461 18.8208 91.5237 18.7434C91.6038 18.6686 91.6839 18.5938 91.7637 18.519C91.8438 18.4443 91.9214 18.3695 91.9961 18.2947C92.0762 18.2199 92.1549 18.1438 92.2324 18.0664C92.2484 18.0504 92.2618 18.0343 92.2727 18.0183C92.2886 18.0023 92.3031 17.9849 92.3166 17.9662C92.1458 17.9983 91.9707 18.0504 91.792 18.1225C91.6183 18.1946 91.4446 18.2774 91.271 18.3709C91.1002 18.4617 90.9335 18.5592 90.7703 18.6633C90.613 18.7675 90.4647 18.8703 90.3259 18.9718L90.2298 19.0439C90.1228 19.124 90.0133 19.2068 89.9013 19.2922C89.7918 19.375 89.6892 19.4645 89.5928 19.5606C89.5529 19.6007 89.5156 19.6514 89.4808 19.7129C89.4648 19.7396 89.4474 19.765 89.4286 19.789C89.4155 19.813 89.3941 19.8397 89.3648 19.8691C89.3006 19.9332 89.2419 19.9599 89.1886 19.9492C89.1324 19.9412 89.0776 19.9105 89.0243 19.8571C88.9921 19.8251 88.9587 19.7863 88.9239 19.741C88.892 19.6982 88.8641 19.6515 88.8398 19.6008C88.8159 19.5554 88.797 19.5073 88.784 19.4566C88.7706 19.4058 88.7691 19.3564 88.7796 19.3084C88.7985 19.2576 88.8746 19.1495 89.008 18.9839C89.1444 18.821 89.3166 18.6221 89.5246 18.387C89.7356 18.1547 89.9735 17.8957 90.2378 17.6099C90.5046 17.3215 90.7783 17.0264 91.0589 16.7246C91.3417 16.4255 91.6223 16.1291 91.9 15.8353C92.1802 15.5442 92.438 15.2759 92.6729 15.0302C92.9104 14.7871 93.116 14.5762 93.2896 14.3973C93.4658 14.2157 93.5902 14.0888 93.6619 14.0167C93.7156 13.9633 93.7703 13.9219 93.8262 13.8925C93.8878 13.8631 93.9531 13.8831 94.0227 13.9526C94.0948 14.0247 94.1456 14.1101 94.1749 14.2089C94.2068 14.305 94.2028 14.4025 94.163 14.5013C94.1575 14.5173 94.1187 14.5667 94.0466 14.6495C93.9773 14.7296 93.8853 14.8324 93.7703 14.958C93.6583 15.0808 93.5274 15.2224 93.3777 15.3826C93.2309 15.5402 93.0775 15.7044 92.9173 15.8753C92.7596 16.0435 92.6008 16.2131 92.4405 16.384C92.2803 16.555 92.1309 16.7152 91.9921 16.8647L91.4193 17.4776C91.5342 17.4269 91.6611 17.3801 91.7999 17.3374C91.9388 17.2947 92.0762 17.2666 92.2125 17.2533C92.3514 17.2426 92.4833 17.2519 92.6088 17.2813C92.7371 17.3133 92.8491 17.3774 92.9456 17.4735C93.063 17.591 93.1243 17.7138 93.1297 17.842C93.1352 17.9702 93.1083 18.0957 93.0496 18.2185C92.9934 18.344 92.9173 18.4629 92.8212 18.575C92.7251 18.6872 92.6345 18.786 92.5489 18.8714C92.4956 18.9249 92.442 18.9756 92.3887 19.0237C92.3379 19.0744 92.2861 19.1238 92.2324 19.1719C92.1766 19.2226 92.1204 19.2734 92.0642 19.3241C92.0135 19.3749 91.9616 19.4269 91.908 19.4804C91.7238 19.6646 91.5382 19.8582 91.3515 20.0612C91.1673 20.2615 90.9976 20.4711 90.8428 20.6901L90.7946 20.7542C90.7841 20.7756 90.7692 20.7983 90.7508 20.8223C90.7319 20.8463 90.7134 20.8677 90.6946 20.8864Z" fill="#C08332"/>
<path d="M95.3934 23.3441C95.1367 23.549 94.8622 23.7317 94.57 23.8923C94.2829 24.0535 93.9729 24.1583 93.6398 24.2068C93.5386 24.2196 93.4346 24.2253 93.3273 24.224C93.2228 24.2203 93.1199 24.206 93.0177 24.1811C92.9151 24.1615 92.8186 24.1251 92.7276 24.0719C92.6363 24.024 92.5576 23.9587 92.492 23.876C92.3883 23.7461 92.3285 23.6077 92.3129 23.4608C92.2966 23.3193 92.3089 23.1742 92.3499 23.0256C92.3959 22.8777 92.4622 22.7306 92.5485 22.5845C92.6402 22.4389 92.7403 22.301 92.8491 22.1709C92.9629 22.0413 93.0775 21.9211 93.192 21.8104C93.3088 21.7027 93.4146 21.6111 93.5089 21.5358C93.6155 21.451 93.7355 21.3624 93.8696 21.27C94.0034 21.1776 94.1451 21.0888 94.2945 21.0035C94.4464 20.9211 94.6012 20.8458 94.7593 20.7776C94.9199 20.7124 95.0798 20.6646 95.2389 20.6341C95.4013 20.6013 95.5598 20.591 95.7142 20.603C95.8715 20.6126 96.0205 20.6509 96.1608 20.7177L96.1561 20.7213C96.2819 20.7757 96.3824 20.8502 96.4578 20.9446C96.5049 21.0037 96.5281 21.06 96.5274 21.1137C96.5296 21.165 96.5002 21.2128 96.4386 21.2569C96.5386 21.4428 96.5651 21.6366 96.5183 21.8383C96.4716 22.0399 96.3849 22.2344 96.2591 22.4218C96.1355 22.6121 95.9923 22.7867 95.8291 22.9457C95.6685 23.1077 95.5235 23.2405 95.3934 23.3441ZM95.7022 21.4602C95.6624 21.41 95.6439 21.3475 95.6468 21.2726C95.5166 21.2848 95.38 21.3164 95.2371 21.3675C95.0972 21.4163 94.9587 21.4759 94.822 21.5465C94.6904 21.6177 94.5621 21.6959 94.4366 21.7813C94.3115 21.8666 94.1973 21.9505 94.094 22.0329C94.0085 22.1012 93.9012 22.1939 93.7725 22.3111C93.6467 22.4259 93.5252 22.5493 93.4085 22.6813C93.2935 22.8161 93.1949 22.9529 93.1123 23.0913C93.0318 23.2327 92.993 23.3627 92.9959 23.4813C93.1221 23.5304 93.266 23.5386 93.4284 23.5058C93.5959 23.4736 93.763 23.4199 93.9302 23.3446C94.0973 23.2694 94.2564 23.1811 94.4073 23.0799C94.561 22.9816 94.6879 22.8925 94.7883 22.8124C94.8619 22.7536 94.9543 22.6726 95.0656 22.5695C95.1766 22.4665 95.2842 22.3564 95.389 22.2392C95.4963 22.1196 95.588 21.9982 95.6635 21.8751C95.7418 21.7548 95.7849 21.6455 95.7932 21.547C95.7632 21.5275 95.7331 21.4986 95.7022 21.4602Z" fill="#C08332"/>
<path d="M97.1373 27.8127C97.0702 27.8555 96.9948 27.8881 96.9107 27.9106C96.8262 27.9332 96.7432 27.9505 96.6612 27.9626C96.5445 27.9834 96.4245 27.9954 96.3009 27.9983C96.1802 27.9992 96.0627 27.9871 95.9478 27.9619C95.8365 27.9347 95.7313 27.8898 95.6331 27.8272C95.5348 27.7646 95.45 27.6776 95.3786 27.5663C95.2524 27.3691 95.197 27.1737 95.2118 26.9802C95.2271 26.7867 95.2851 26.6039 95.3855 26.4319C95.4863 26.2599 95.6153 26.101 95.773 25.9551C95.9329 25.8125 96.0924 25.6903 96.2512 25.5885C96.3691 25.5131 96.5104 25.4294 96.6758 25.3371C96.844 25.2428 97.022 25.1534 97.2101 25.0689C97.4001 24.9876 97.5959 24.9184 97.7971 24.8614C98.0001 24.8075 98.1933 24.7802 98.3768 24.7795C98.5631 24.7766 98.7357 24.8076 98.8934 24.8724C99.0536 24.9403 99.1867 25.0569 99.2925 25.2223C99.315 25.2573 99.3411 25.3123 99.3712 25.3872C99.4013 25.4621 99.4238 25.5396 99.439 25.6195C99.4597 25.7005 99.4644 25.7781 99.4535 25.8523C99.4481 25.9276 99.4198 25.9816 99.369 26.0141C99.3212 26.0447 99.2704 26.0458 99.2164 26.0176C99.1646 25.9925 99.1127 25.9538 99.0612 25.9016C99.0152 25.8504 98.9703 25.7941 98.9264 25.7325C98.8876 25.6721 98.8561 25.6228 98.8318 25.5846L98.7767 25.4987C98.64 25.4606 98.4758 25.4627 98.2832 25.5053C98.0936 25.5457 97.9015 25.6061 97.7061 25.6863C97.511 25.7664 97.3232 25.8551 97.1434 25.9523C96.9665 26.0475 96.8244 26.1297 96.716 26.199C96.5634 26.2967 96.4194 26.4045 96.2842 26.5225C96.1544 26.6416 96.0475 26.7795 95.9637 26.9361C95.9456 26.9703 95.9264 27.0139 95.9064 27.067C95.8919 27.1212 95.8967 27.1674 95.9213 27.2055C95.9394 27.2342 95.9815 27.2475 96.0478 27.2456C96.1156 27.2469 96.1896 27.2399 96.2697 27.2246C96.3495 27.2093 96.4249 27.1903 96.4956 27.1675C96.5659 27.1447 96.6177 27.1274 96.6504 27.1154C96.6652 27.1104 96.6805 27.1029 96.6964 27.0927C96.7124 27.0825 96.7283 27.0723 96.7439 27.0622C96.7725 27.0438 96.7997 27.0265 96.8251 27.0102C96.8559 26.9951 96.8813 26.9856 96.9013 26.9818C96.9694 26.9694 97.0245 26.9746 97.0658 26.9974C97.1093 27.0234 97.1485 27.0634 97.1829 27.1174C97.2134 27.1652 97.2399 27.2201 97.2616 27.2823C97.2837 27.3445 97.2953 27.4087 97.2975 27.4747C97.2993 27.5407 97.2881 27.6039 97.2641 27.6642C97.2399 27.7245 97.1974 27.774 97.1373 27.8127Z" fill="#C08332"/>
<path d="M100.281 31.4757C99.9873 31.6232 99.6813 31.7454 99.3622 31.8423C99.0483 31.9408 98.7231 31.9794 98.387 31.9581C98.2855 31.9498 98.1825 31.934 98.0778 31.9105C97.9766 31.8854 97.8784 31.8501 97.7838 31.8047C97.6873 31.7644 97.6003 31.7088 97.5227 31.638C97.443 31.5723 97.3795 31.4922 97.332 31.3977C97.2574 31.2492 97.2276 31.1015 97.2425 30.9545C97.2559 30.8126 97.298 30.6732 97.3687 30.5363C97.4441 30.401 97.5394 30.2708 97.654 30.1456C97.7736 30.0221 97.9001 29.9078 98.0332 29.8029C98.1717 29.6996 98.3083 29.6056 98.4432 29.5209C98.5799 29.4396 98.7021 29.3718 98.8101 29.3176C98.9315 29.2565 99.0675 29.1946 99.2176 29.1318C99.368 29.0691 99.5247 29.0114 99.6885 28.9587C99.8538 28.9094 100.021 28.8677 100.19 28.8336C100.36 28.8029 100.527 28.7891 100.689 28.7922C100.854 28.7935 101.011 28.816 101.16 28.8596C101.312 28.9016 101.45 28.9698 101.573 29.0641L101.569 29.0666C101.68 29.1458 101.763 29.2394 101.817 29.3473C101.851 29.4148 101.862 29.4748 101.851 29.5271C101.842 29.5778 101.804 29.6184 101.734 29.649C101.794 29.8515 101.78 30.0467 101.692 30.2343C101.605 30.4219 101.48 30.5944 101.318 30.7517C101.158 30.9125 100.982 31.0539 100.79 31.1758C100.599 31.3012 100.43 31.4011 100.281 31.4757ZM100.972 29.696C100.943 29.6386 100.938 29.5737 100.956 29.501C100.826 29.486 100.686 29.4888 100.536 29.5093C100.389 29.5282 100.241 29.558 100.092 29.5989C99.9492 29.6413 99.8074 29.6914 99.6671 29.7491C99.5272 29.8068 99.3981 29.8653 99.2799 29.9247C99.1821 29.9738 99.0581 30.0425 98.908 30.1306C98.7612 30.217 98.6169 30.3127 98.4755 30.4176C98.3352 30.526 98.2105 30.6394 98.101 30.7578C97.9933 30.8796 97.9284 30.9988 97.9067 31.1154C98.0198 31.1895 98.1593 31.2272 98.3247 31.2286C98.4954 31.2317 98.6702 31.2136 98.8493 31.1744C99.028 31.1353 99.202 31.0817 99.3706 31.0138C99.541 30.9493 99.6838 30.8883 99.7984 30.8306C99.8829 30.7882 99.9898 30.7281 100.12 30.6502C100.25 30.5722 100.378 30.4867 100.505 30.3936C100.634 30.2988 100.749 30.1989 100.848 30.094C100.949 29.9924 101.014 29.8944 101.043 29.7997C101.018 29.7744 100.994 29.7399 100.972 29.696Z" fill="#C08332"/>
<path d="M99.4481 35.9693C99.3988 35.9884 99.3535 35.9918 99.3121 35.9794C99.2712 35.9671 99.2342 35.9449 99.2016 35.913C99.1668 35.886 99.137 35.851 99.112 35.8079C99.0852 35.7698 99.0649 35.7331 99.0511 35.6979C99.0032 35.5746 98.9971 35.4536 99.0319 35.3347C99.0667 35.2159 99.1276 35.1012 99.2142 34.9906C99.2976 34.8814 99.4013 34.7783 99.5257 34.6815C99.6536 34.5832 99.7827 34.4927 99.9125 34.4099C100.046 34.3257 100.175 34.2514 100.3 34.1868C100.428 34.1208 100.539 34.0659 100.631 34.0219C100.946 33.8632 101.27 33.7113 101.603 33.5662C101.937 33.4245 102.269 33.2895 102.6 33.1612C103.505 32.8102 104.413 32.4944 105.325 32.2137C105.339 32.2082 105.355 32.2021 105.372 32.1952C105.392 32.1919 105.41 32.1869 105.427 32.18C105.503 32.1549 105.588 32.1256 105.685 32.0923C105.785 32.0576 105.884 32.0253 105.982 31.9954C106.079 31.9656 106.168 31.9392 106.249 31.9162C106.334 31.8954 106.395 31.8859 106.432 31.8877L106.427 31.8897C106.481 31.8847 106.526 31.8897 106.56 31.9048C106.594 31.9199 106.623 31.9573 106.646 32.0172C106.695 32.1439 106.695 32.2677 106.644 32.3885C106.594 32.5093 106.506 32.5943 106.379 32.6434C106.35 32.6544 106.322 32.6635 106.292 32.6709C106.267 32.6805 106.242 32.6883 106.216 32.6944C106.19 32.7004 106.164 32.7064 106.138 32.7124C106.117 32.7206 106.098 32.7281 106.08 32.735C105.939 32.7777 105.798 32.8221 105.658 32.8683C105.523 32.9167 105.385 32.964 105.245 33.0102C104.935 33.11 104.627 33.2134 104.32 33.3202C104.018 33.4293 103.714 33.5432 103.408 33.662C103.278 33.7125 103.108 33.7805 102.898 33.866C102.688 33.9514 102.46 34.0479 102.214 34.1554C101.971 34.2615 101.722 34.3746 101.465 34.4946C101.209 34.6182 100.967 34.7422 100.74 34.8668C100.513 34.9913 100.311 35.1123 100.133 35.2296C99.9574 35.3505 99.8284 35.4613 99.7457 35.5621C99.7439 35.5993 99.7327 35.6381 99.712 35.6785C99.6961 35.7212 99.6728 35.7605 99.6424 35.7967C99.6167 35.835 99.5873 35.8687 99.5539 35.8978C99.5184 35.9318 99.4832 35.9556 99.4481 35.9693Z" fill="#C08332"/>
<path d="M101.027 40.2565C100.954 40.2771 100.9 40.2728 100.864 40.2434C100.825 40.2151 100.796 40.1684 100.778 40.1031C100.73 39.9324 100.74 39.7957 100.81 39.6938C100.88 39.5956 100.984 39.5075 101.123 39.4292C101.171 39.4038 101.219 39.3784 101.267 39.3534C101.318 39.3269 101.368 39.303 101.417 39.2816C101.463 39.2609 101.493 39.2446 101.509 39.2323C101.525 39.2196 101.558 39.2026 101.607 39.1812C101.489 39.167 101.363 39.1438 101.228 39.1112C101.098 39.0811 100.972 39.038 100.85 38.9822C100.732 38.9252 100.628 38.8527 100.536 38.7646C100.446 38.6802 100.383 38.5761 100.348 38.4525C100.312 38.3216 100.312 38.2041 100.349 38.0994C100.39 37.9935 100.45 37.9022 100.531 37.8246C100.615 37.7499 100.713 37.685 100.823 37.6306C100.934 37.5795 101.042 37.5393 101.148 37.5095C101.395 37.4399 101.669 37.3884 101.969 37.3547C102.275 37.3239 102.583 37.3116 102.895 37.3181C103.21 37.3232 103.517 37.3467 103.815 37.3884C104.117 37.429 104.387 37.4903 104.626 37.5722L104.62 37.5737L104.679 37.5925C104.745 37.6172 104.815 37.6462 104.891 37.6799C104.972 37.7158 105.023 37.7702 105.043 37.8431C105.063 37.9119 105.049 37.9808 105.001 38.049C104.957 38.1164 104.906 38.1701 104.847 38.2103C104.855 38.31 104.853 38.393 104.84 38.4594C104.831 38.5246 104.811 38.5794 104.781 38.6232C104.75 38.6671 104.709 38.7023 104.657 38.7284C104.609 38.7538 104.555 38.7751 104.493 38.7925C104.467 38.7998 104.44 38.8074 104.411 38.8154C104.382 38.8237 104.352 38.8299 104.322 38.8346C104.292 38.8393 104.257 38.8469 104.217 38.8582C104.177 38.8694 104.141 38.8799 104.108 38.889C104.072 38.8991 104.026 38.918 103.971 38.9452C103.917 38.9764 103.861 39.0075 103.803 39.0394L103.612 39.1344C103.512 39.1823 103.396 39.2309 103.264 39.2794C103.134 39.332 103.004 39.386 102.875 39.4422C102.741 39.4955 102.61 39.5481 102.484 39.5992C102.361 39.6496 102.246 39.6974 102.142 39.7428L101.371 40.1006L101.283 40.1434C101.238 40.1637 101.197 40.1832 101.158 40.2017C101.121 40.2238 101.078 40.2423 101.027 40.2565ZM103.811 38.1255C103.818 38.1233 103.828 38.1182 103.842 38.1106C103.859 38.1019 103.876 38.0932 103.893 38.0845C103.691 38.0508 103.476 38.0312 103.247 38.0251C103.022 38.0214 102.795 38.0287 102.564 38.0464C102.339 38.0667 102.114 38.0968 101.889 38.1364C101.67 38.1788 101.464 38.227 101.271 38.281C101.253 38.2861 101.236 38.2908 101.222 38.2948C101.207 38.2991 101.193 38.3049 101.18 38.3125L101.174 38.3144C101.334 38.3637 101.531 38.3883 101.766 38.389C102.006 38.3919 102.253 38.3814 102.505 38.3575C102.761 38.3325 103.004 38.2973 103.234 38.2524C103.47 38.2096 103.661 38.1672 103.811 38.1255Z" fill="#C08332"/>
<path d="M101.8 43.7167C101.759 43.724 101.722 43.7207 101.689 43.7073C101.66 43.6932 101.635 43.6725 101.615 43.6453C101.595 43.6218 101.581 43.5935 101.572 43.5605C101.559 43.5322 101.55 43.5028 101.545 43.4731C101.538 43.4321 101.535 43.3828 101.537 43.3252C101.535 43.2719 101.539 43.2175 101.549 43.1621C101.559 43.107 101.573 43.0547 101.591 43.0054C101.614 42.9594 101.644 42.9217 101.681 42.8923C101.714 42.8637 101.779 42.8314 101.876 42.7952C101.978 42.7625 102.095 42.7288 102.227 42.6947C102.363 42.6599 102.507 42.6255 102.658 42.5918C102.813 42.5573 102.96 42.5244 103.1 42.4924C103.241 42.4645 103.367 42.4392 103.478 42.416C103.593 42.3964 103.679 42.3815 103.735 42.3717C103.995 42.3271 104.247 42.2876 104.491 42.2532C104.738 42.222 104.991 42.1901 105.25 42.1571C105.247 42.1382 105.242 42.1201 105.235 42.102C105.228 42.0842 105.223 42.0657 105.22 42.0473C105.204 42.0001 105.19 41.9508 105.177 41.8993C105.165 41.8518 105.154 41.8018 105.145 41.7496C105.135 41.6865 105.136 41.6285 105.15 41.5763C105.164 41.5241 105.21 41.4915 105.288 41.4781C105.381 41.4618 105.459 41.4694 105.522 41.5009C105.585 41.5321 105.637 41.577 105.677 41.635C105.722 41.6927 105.756 41.7576 105.78 41.8301C105.808 41.9019 105.831 41.9726 105.851 42.0422C105.853 42.0531 105.854 42.0607 105.855 42.0643C105.859 42.0676 105.862 42.0744 105.864 42.0857C105.91 42.0817 105.964 42.0763 106.028 42.069C106.096 42.061 106.169 42.0523 106.248 42.0425C106.371 42.0251 106.502 42.0085 106.641 41.9921C106.784 41.9751 106.919 41.9595 107.047 41.9454C107.179 41.9302 107.294 41.92 107.392 41.9146C107.495 41.9084 107.568 41.9073 107.61 41.9117C107.662 41.9218 107.705 41.9356 107.738 41.9526C107.772 41.9737 107.795 42.0175 107.807 42.0846C107.833 42.2336 107.804 42.3572 107.721 42.4558C107.639 42.5541 107.527 42.6157 107.385 42.64C107.221 42.6683 107.057 42.6908 106.891 42.7078C106.726 42.7285 106.559 42.7498 106.39 42.7712L106.103 42.8035C106.13 42.8945 106.163 42.9848 106.201 43.074C106.235 43.1599 106.267 43.2465 106.298 43.3332C106.328 43.4238 106.351 43.5115 106.366 43.5971C106.379 43.6718 106.368 43.7331 106.334 43.7809C106.304 43.8284 106.252 43.8585 106.178 43.8712C106.096 43.8853 106.013 43.8842 105.93 43.8679C105.846 43.8516 105.778 43.8095 105.724 43.7421L105.725 43.7479C105.715 43.7341 105.696 43.6914 105.669 43.6196C105.645 43.5471 105.619 43.4633 105.591 43.3687C105.564 43.2773 105.537 43.1863 105.509 43.0954C105.483 43.008 105.464 42.942 105.452 42.8981L105.451 42.8927C105.242 42.921 105.034 42.9511 104.829 42.9826C104.627 43.0134 104.422 43.0468 104.214 43.0827C103.927 43.132 103.623 43.1921 103.302 43.2625C102.985 43.3364 102.685 43.4187 102.402 43.5097L102.159 43.5975C102.098 43.6232 102.037 43.6471 101.975 43.6692C101.918 43.6906 101.859 43.7066 101.8 43.7167Z" fill="#C08332"/>
<path d="M103.256 48.9037C103.142 48.9117 103.024 48.8881 102.898 48.8326C102.774 48.7808 102.657 48.7097 102.548 48.6191C102.443 48.5281 102.354 48.4208 102.281 48.2972C102.208 48.1775 102.168 48.0554 102.159 47.931C102.146 47.7541 102.169 47.5989 102.228 47.4662C102.29 47.3328 102.377 47.215 102.487 47.1128C102.601 47.0102 102.731 46.9231 102.877 46.8521C103.024 46.785 103.175 46.7288 103.331 46.6839C103.49 46.6382 103.649 46.6027 103.806 46.5762C103.967 46.5534 104.114 46.5374 104.246 46.528C104.359 46.52 104.493 46.516 104.648 46.5164C104.804 46.5207 104.965 46.532 105.133 46.5501C105.301 46.5722 105.468 46.6059 105.634 46.6509C105.8 46.6958 105.95 46.7553 106.084 46.8293C106.219 46.9068 106.329 47.0011 106.417 47.1124C106.504 47.2273 106.554 47.3618 106.564 47.5163C106.573 47.637 106.556 47.7461 106.514 47.8436C106.472 47.9451 106.412 48.0307 106.334 48.1007C106.259 48.1739 106.17 48.2315 106.067 48.2729C105.964 48.3178 105.857 48.3447 105.744 48.3526C105.597 48.3631 105.434 48.3403 105.256 48.2848C105.078 48.2294 104.904 48.1529 104.734 48.055C104.565 47.9611 104.41 47.8509 104.268 47.7247C104.131 47.6018 104.023 47.4771 103.946 47.3499C103.879 47.3622 103.78 47.3843 103.65 47.4166C103.523 47.4481 103.397 47.4873 103.272 47.534C103.147 47.5844 103.039 47.6395 102.948 47.699C102.859 47.7621 102.816 47.8313 102.821 47.9067C102.824 47.9444 102.838 47.9756 102.862 48.0002C102.887 48.0289 102.919 48.0532 102.958 48.0731C102.997 48.0931 103.04 48.109 103.087 48.1206C103.133 48.1366 103.178 48.1503 103.22 48.1623L103.302 48.1906C103.313 48.1975 103.321 48.2007 103.325 48.2004C103.329 48.204 103.335 48.2073 103.343 48.2105C103.394 48.2334 103.44 48.2547 103.484 48.2743C103.527 48.2979 103.565 48.3309 103.599 48.374L103.598 48.3686C103.614 48.3824 103.623 48.3969 103.624 48.4121C103.629 48.4306 103.632 48.4473 103.633 48.4625C103.636 48.5038 103.626 48.5502 103.603 48.601C103.58 48.6517 103.55 48.6992 103.511 48.7438C103.476 48.7877 103.435 48.8247 103.388 48.8547C103.345 48.8841 103.301 48.9008 103.256 48.9037ZM105.668 47.6083C105.706 47.6058 105.745 47.6011 105.786 47.5942C105.827 47.5877 105.863 47.5757 105.892 47.5583C105.824 47.5101 105.743 47.4684 105.65 47.4336C105.561 47.4021 105.466 47.3767 105.366 47.3571C105.27 47.3375 105.173 47.3216 105.073 47.3096C104.974 47.3016 104.883 47.2969 104.8 47.2951C104.924 47.3847 105.061 47.4619 105.214 47.5271C105.37 47.5917 105.521 47.6189 105.668 47.6083Z" fill="#C08332"/>
<path d="M42.638 33.8949C42.638 35.8971 41.0149 37.5202 39.0126 37.5202C37.0103 37.5202 35.3872 35.8971 35.3872 33.8949C35.3872 31.8926 37.0103 30.2695 39.0126 30.2695C41.0149 30.2695 42.638 31.8926 42.638 33.8949Z" fill="white"/>
<path fill-rule="evenodd" clip-rule="evenodd" d="M39.0126 36.4326C40.4142 36.4326 41.5504 35.2965 41.5504 33.8949C41.5504 32.4933 40.4142 31.3571 39.0126 31.3571C37.611 31.3571 36.4749 32.4933 36.4749 33.8949C36.4749 35.2965 37.611 36.4326 39.0126 36.4326ZM39.0126 37.5202C41.0149 37.5202 42.638 35.8971 42.638 33.8949C42.638 31.8926 41.0149 30.2695 39.0126 30.2695C37.0103 30.2695 35.3872 31.8926 35.3872 33.8949C35.3872 35.8971 37.0103 37.5202 39.0126 37.5202Z" fill="#C08332"/>
<path d="M48.8012 27.3691C48.8012 28.3702 47.9894 29.1818 46.9885 29.1818C45.9871 29.1818 45.1758 28.3702 45.1758 27.3691C45.1758 26.3679 45.9871 25.5564 46.9885 25.5564C47.9894 25.5564 48.8012 26.3679 48.8012 27.3691Z" fill="white"/>
<path fill-rule="evenodd" clip-rule="evenodd" d="M46.9885 28.4567C47.5892 28.4567 48.0761 27.9697 48.0761 27.3691C48.0761 26.7684 47.5892 26.2815 46.9885 26.2815C46.3877 26.2815 45.9009 26.7684 45.9009 27.3691C45.9009 27.9697 46.3877 28.4567 46.9885 28.4567ZM46.9885 29.1818C47.9894 29.1818 48.8012 28.3702 48.8012 27.3691C48.8012 26.3679 47.9894 25.5564 46.9885 25.5564C45.9871 25.5564 45.1758 26.3679 45.1758 27.3691C45.1758 28.3702 45.9871 29.1818 46.9885 29.1818Z" fill="#C08332"/>
<path d="M33.212 78.487C33.212 79.4883 32.4005 80.2997 31.3994 80.2997C30.3982 80.2997 29.5867 79.4883 29.5867 78.487C29.5867 77.486 30.3982 76.6743 31.3994 76.6743C32.4005 76.6743 33.212 77.486 33.212 78.487Z" fill="white"/>
<path fill-rule="evenodd" clip-rule="evenodd" d="M31.3994 79.5746C32 79.5746 32.487 79.0877 32.487 78.487C32.487 77.8863 32 77.3994 31.3994 77.3994C30.7987 77.3994 30.3117 77.8863 30.3117 78.487C30.3117 79.0877 30.7987 79.5746 31.3994 79.5746ZM31.3994 80.2997C32.4005 80.2997 33.212 79.4883 33.212 78.487C33.212 77.486 32.4005 76.6743 31.3994 76.6743C30.3982 76.6743 29.5867 77.486 29.5867 78.487C29.5867 79.4883 30.3982 80.2997 31.3994 80.2997Z" fill="#C08332"/>
<path d="M74.8539 51.001L84.1668 59.7584L71.5175 73.21L62.2046 64.4529L74.8539 51.001Z" fill="#9A5A3A"/>
<path fill-rule="evenodd" clip-rule="evenodd" d="M82.6296 59.8056L74.9014 52.5385L63.7421 64.4058L71.4703 71.6729L82.6296 59.8056ZM74.8539 51.001L62.2046 64.4529L71.5175 73.21L84.1668 59.7584L74.8539 51.001Z" fill="#C08332"/>
<path d="M67.7528 61.8706L70.2362 64.2061L67.9011 66.6895L65.4177 64.354L67.7528 61.8706Z" fill="white"/>
<path fill-rule="evenodd" clip-rule="evenodd" d="M69.2113 64.2373L67.7844 62.8955L66.4426 64.3224L67.8696 65.6646L69.2113 64.2373ZM67.7528 61.8706L65.4177 64.354L67.9011 66.6895L70.2362 64.2061L67.7528 61.8706Z" fill="#C08332"/>
<path fill-rule="evenodd" clip-rule="evenodd" d="M69.2113 64.2373L67.7844 62.8955L66.4426 64.3224L67.8696 65.6646L69.2113 64.2373ZM67.7528 61.8706L65.4177 64.354L67.9011 66.6895L70.2362 64.2061L67.7528 61.8706Z" fill="url(#paint0_linear_256_389)" fill-opacity="0.2"/>
<path d="M71.4777 65.3735L73.9611 67.709L71.626 70.1924L69.1426 67.8569L71.4777 65.3735Z" fill="white"/>
<path fill-rule="evenodd" clip-rule="evenodd" d="M72.9362 67.7405L71.5092 66.3984L70.1675 67.8254L71.5944 69.1675L72.9362 67.7405ZM71.4777 65.3735L69.1426 67.8569L71.626 70.1924L73.9611 67.709L71.4777 65.3735Z" fill="#C08332"/>
<path fill-rule="evenodd" clip-rule="evenodd" d="M72.9362 67.7405L71.5092 66.3984L70.1675 67.8254L71.5944 69.1675L72.9362 67.7405ZM71.4777 65.3735L69.1426 67.8569L71.626 70.1924L73.9611 67.709L71.4777 65.3735Z" fill="url(#paint1_linear_256_389)" fill-opacity="0.2"/>
<path d="M74.9807 61.6484L77.4641 63.9839L75.1286 66.4673L72.6453 64.1318L74.9807 61.6484Z" fill="white"/>
<path fill-rule="evenodd" clip-rule="evenodd" d="M76.4392 64.0154L75.0119 62.6733L73.6702 64.1006L75.0971 65.4424L76.4392 64.0154ZM74.9807 61.6484L72.6453 64.1318L75.1286 66.4673L77.4641 63.9839L74.9807 61.6484Z" fill="#C08332"/>
<path fill-rule="evenodd" clip-rule="evenodd" d="M76.4392 64.0154L75.0119 62.6733L73.6702 64.1006L75.0971 65.4424L76.4392 64.0154ZM74.9807 61.6484L72.6453 64.1318L75.1286 66.4673L77.4641 63.9839L74.9807 61.6484Z" fill="url(#paint2_linear_256_389)" fill-opacity="0.2"/>
<path d="M78.4837 57.9233L80.967 60.2588L78.6319 62.7422L76.1482 60.4071L78.4837 57.9233Z" fill="white"/>
<path fill-rule="evenodd" clip-rule="evenodd" d="M79.9421 60.2903L78.5152 58.9486L77.1734 60.3755L78.6004 61.7173L79.9421 60.2903ZM78.4837 57.9233L76.1482 60.4071L78.6319 62.7422L80.967 60.2588L78.4837 57.9233Z" fill="#C08332"/>
<path fill-rule="evenodd" clip-rule="evenodd" d="M79.9421 60.2903L78.5152 58.9486L77.1734 60.3755L78.6004 61.7173L79.9421 60.2903ZM78.4837 57.9233L76.1482 60.4071L78.6319 62.7422L80.967 60.2588L78.4837 57.9233Z" fill="url(#paint3_linear_256_389)" fill-opacity="0.2"/>
<path d="M71.2553 58.1455L73.7387 60.481L71.4036 62.9644L68.9202 60.6289L71.2553 58.1455Z" fill="white"/>
<path fill-rule="evenodd" clip-rule="evenodd" d="M72.7138 60.5125L71.2868 59.1704L69.9451 60.5974L71.372 61.9395L72.7138 60.5125ZM71.2553 58.1455L68.9202 60.6289L71.4036 62.9644L73.7387 60.481L71.2553 58.1455Z" fill="#C08332"/>
<path fill-rule="evenodd" clip-rule="evenodd" d="M72.7138 60.5125L71.2868 59.1704L69.9451 60.5974L71.372 61.9395L72.7138 60.5125ZM71.2553 58.1455L68.9202 60.6289L71.4036 62.9644L73.7387 60.481L71.2553 58.1455Z" fill="url(#paint4_linear_256_389)" fill-opacity="0.2"/>
<path d="M74.7586 54.4207L77.242 56.7558L74.9065 59.2391L72.4231 56.904L74.7586 54.4207Z" fill="white"/>
<path fill-rule="evenodd" clip-rule="evenodd" d="M76.2171 56.7873L74.7901 55.4455L73.448 56.8725L74.8753 58.2143L76.2171 56.7873ZM74.7586 54.4207L72.4231 56.904L74.9065 59.2391L77.242 56.7558L74.7586 54.4207Z" fill="#C08332"/>
<path fill-rule="evenodd" clip-rule="evenodd" d="M76.2171 56.7873L74.7901 55.4455L73.448 56.8725L74.8753 58.2143L76.2171 56.7873ZM74.7586 54.4207L72.4231 56.904L74.9065 59.2391L77.242 56.7558L74.7586 54.4207Z" fill="url(#paint5_linear_256_389)" fill-opacity="0.2"/>
<path d="M84.3299 61.085C84.3299 64.0883 83.1125 66.5231 81.6109 66.5231C80.1092 66.5231 78.8918 64.0883 78.8918 61.085C78.8918 58.0818 80.1092 55.647 81.6109 55.647C83.1125 55.647 84.3299 58.0818 84.3299 61.085Z" fill="white"/>
<path fill-rule="evenodd" clip-rule="evenodd" d="M82.8848 64.606C83.3166 63.7424 83.6048 62.4986 83.6048 61.085C83.6048 59.6715 83.3166 58.4276 82.8848 57.5641C82.4313 56.657 81.939 56.372 81.6109 56.372C81.2824 56.372 80.7901 56.657 80.3366 57.5641C79.9048 58.4276 79.6169 59.6715 79.6169 61.085C79.6169 62.4986 79.9048 63.7424 80.3366 64.606C80.7901 65.5131 81.2824 65.798 81.6109 65.798C81.939 65.798 82.4313 65.5131 82.8848 64.606ZM81.6109 66.5231C83.1125 66.5231 84.3299 64.0883 84.3299 61.085C84.3299 58.0818 83.1125 55.647 81.6109 55.647C80.1092 55.647 78.8918 58.0818 78.8918 61.085C78.8918 64.0883 80.1092 66.5231 81.6109 66.5231Z" fill="white"/>
<path d="M40 104.445C40 104.578 39.9453 104.707 39.8359 104.832C39.7344 104.957 39.6094 105.078 39.4609 105.195C39.3125 105.312 39.1602 105.422 39.0039 105.523C38.8477 105.617 38.7188 105.695 38.6172 105.758C38.3516 105.93 38.0859 106.09 37.8203 106.238C37.5625 106.387 37.293 106.516 37.0117 106.625C36.7383 106.734 36.4531 106.82 36.1562 106.883C35.8672 106.945 35.5625 106.977 35.2422 106.977L35.0547 107C34.7969 107 34.5391 106.973 34.2812 106.918C34.0312 106.855 33.7969 106.766 33.5781 106.648C33.3594 106.523 33.1641 106.367 32.9922 106.18C32.8203 105.992 32.6875 105.766 32.5938 105.5C32.5234 105.289 32.4688 105.039 32.4297 104.75C32.3906 104.461 32.3594 104.16 32.3359 103.848C32.3203 103.535 32.3047 103.23 32.2891 102.934C32.2812 102.629 32.2734 102.359 32.2656 102.125C32.1484 99.7344 32.0547 97.3438 31.9844 94.9531C31.9688 94.6797 31.957 94.4062 31.9492 94.1328C31.9414 93.8594 31.9375 93.5859 31.9375 93.3125C31.9375 92.8438 31.9648 92.4453 32.0195 92.1172C32.0742 91.7891 32.1836 91.5195 32.3477 91.3086C32.5117 91.0977 32.7461 90.9453 33.0508 90.8516C33.3633 90.7578 33.7734 90.7109 34.2812 90.7109C34.7891 90.7109 35.2969 90.7148 35.8047 90.7227C36.3203 90.7305 36.8359 90.7344 37.3516 90.7344C37.5078 90.7344 37.6641 90.7305 37.8203 90.7227C37.9766 90.707 38.1328 90.7188 38.2891 90.7578C38.3828 90.7734 38.4648 90.8008 38.5352 90.8398C38.6055 90.8711 38.6406 90.9453 38.6406 91.0625C38.6406 91.3438 38.5469 91.5547 38.3594 91.6953C38.1719 91.8281 37.9492 91.918 37.6914 91.9648C37.4336 92.0117 37.1641 92.0352 36.8828 92.0352C36.6094 92.0273 36.3828 92.0234 36.2031 92.0234H34.6797C34.5234 92.0234 34.3672 92.0234 34.2109 92.0234C34.0547 92.0234 33.8984 92.0312 33.7422 92.0469C33.6953 92.1641 33.6641 92.2852 33.6484 92.4102C33.6328 92.5352 33.625 92.6641 33.625 92.7969C33.625 93.6484 33.6445 94.4883 33.6836 95.3164C33.7305 96.1445 33.7734 96.9844 33.8125 97.8359C34.2969 97.7969 34.7773 97.75 35.2539 97.6953C35.7305 97.6406 36.2109 97.5781 36.6953 97.5078C36.7656 97.5078 36.8281 97.5039 36.8828 97.4961C36.9453 97.4883 37.0078 97.4844 37.0703 97.4844C37.2344 97.4844 37.3477 97.5273 37.4102 97.6133C37.4805 97.6992 37.5156 97.8203 37.5156 97.9766C37.5156 98.0859 37.5078 98.1875 37.4922 98.2812C37.4844 98.375 37.4609 98.4688 37.4219 98.5625C37.3672 98.7188 37.2773 98.832 37.1523 98.9023C37.0273 98.9727 36.8867 99.0234 36.7305 99.0547C36.5742 99.0781 36.4102 99.0898 36.2383 99.0898C36.0742 99.0898 35.9297 99.0938 35.8047 99.1016C35.4766 99.1172 35.1523 99.1289 34.832 99.1367C34.5195 99.1445 34.2031 99.1562 33.8828 99.1719C33.8906 99.3359 33.9023 99.582 33.918 99.9102C33.9336 100.238 33.9492 100.609 33.9648 101.023C33.9883 101.43 34.0117 101.852 34.0352 102.289C34.0664 102.727 34.0977 103.141 34.1289 103.531C34.1602 103.914 34.1953 104.25 34.2344 104.539C34.2734 104.828 34.3125 105.023 34.3516 105.125C34.4375 105.289 34.5352 105.398 34.6445 105.453C34.7539 105.5 34.8984 105.523 35.0781 105.523C35.3672 105.523 35.6719 105.469 35.9922 105.359C36.3125 105.242 36.625 105.098 36.9297 104.926C37.2344 104.746 37.5234 104.551 37.7969 104.34C38.0781 104.129 38.3203 103.922 38.5234 103.719C38.6094 103.648 38.6953 103.578 38.7812 103.508C38.8672 103.43 38.9688 103.391 39.0859 103.391C39.2031 103.391 39.3164 103.426 39.4258 103.496C39.5352 103.566 39.6328 103.656 39.7188 103.766C39.8047 103.867 39.8711 103.98 39.918 104.105C39.9727 104.23 40 104.344 40 104.445ZM64.7463 100.555C64.7463 100.719 64.6877 100.891 64.5705 101.07C64.4533 101.25 64.3244 101.383 64.1838 101.469C64.1447 101.492 64.0783 101.516 63.9845 101.539C63.8908 101.562 63.7892 101.586 63.6798 101.609C63.5783 101.625 63.4767 101.645 63.3752 101.668C63.2814 101.684 63.2072 101.695 63.1525 101.703L63.4338 103.438C63.5197 103.977 63.5822 104.52 63.6213 105.066C63.6681 105.605 63.7697 106.141 63.9259 106.672C63.9416 106.719 63.9572 106.762 63.9728 106.801C63.9884 106.84 63.9963 106.891 63.9963 106.953C63.9963 107.055 63.965 107.133 63.9025 107.188C63.8478 107.242 63.7775 107.281 63.6916 107.305C63.6134 107.336 63.5275 107.355 63.4338 107.363C63.34 107.371 63.2541 107.375 63.1759 107.375H63.0119C62.7697 107.375 62.5822 107.355 62.4494 107.316C62.3244 107.277 62.2267 107.211 62.1564 107.117C62.0861 107.023 62.0392 106.906 62.0158 106.766C61.9923 106.617 61.965 106.438 61.9338 106.227C61.7463 104.797 61.5353 103.367 61.3009 101.938C60.8166 102 60.3283 102.059 59.8361 102.113C59.3517 102.168 58.8634 102.219 58.3713 102.266L57.9963 104.562C57.9806 104.703 57.9572 104.895 57.9259 105.137C57.9025 105.379 57.8713 105.629 57.8322 105.887C57.8009 106.137 57.7619 106.371 57.715 106.59C57.6759 106.809 57.6291 106.969 57.5744 107.07C57.5275 107.164 57.4845 107.23 57.4455 107.27C57.4064 107.309 57.3322 107.328 57.2228 107.328C57.0822 107.328 56.9416 107.301 56.8009 107.246C56.6681 107.199 56.547 107.129 56.4377 107.035C56.3361 106.949 56.2541 106.844 56.1916 106.719C56.1291 106.594 56.0978 106.453 56.0978 106.297C56.0978 106.141 56.1134 105.984 56.1447 105.828C56.1838 105.672 56.215 105.516 56.2384 105.359C56.3244 104.844 56.4025 104.332 56.4728 103.824C56.5431 103.309 56.6213 102.797 56.7072 102.289C56.6525 102.281 56.59 102.27 56.5197 102.254C56.4494 102.23 56.3791 102.203 56.3088 102.172C56.2463 102.141 56.1916 102.102 56.1447 102.055C56.0978 102.008 56.0744 101.953 56.0744 101.891C56.0744 101.812 56.1017 101.742 56.1564 101.68C56.2189 101.609 56.2892 101.547 56.3673 101.492C56.4533 101.43 56.5392 101.379 56.6252 101.34C56.7111 101.293 56.7853 101.258 56.8478 101.234C57.0119 100.141 57.1681 99.0508 57.3166 97.9648C57.465 96.8789 57.5978 95.7812 57.715 94.6719C57.7463 94.375 57.7736 94.0742 57.797 93.7695C57.8205 93.4648 57.8439 93.1602 57.8673 92.8555C57.8986 92.5508 57.9338 92.25 57.9728 91.9531C58.0197 91.6562 58.0822 91.3594 58.1603 91.0625C58.2306 90.7812 58.3478 90.5547 58.5119 90.3828C58.6759 90.2109 58.9181 90.125 59.2384 90.125C59.3322 90.125 59.422 90.1328 59.508 90.1484C59.6017 90.1641 59.6838 90.1953 59.7541 90.2422C59.9572 90.3438 60.1681 90.6211 60.3869 91.0742C60.6056 91.5273 60.8244 92.0781 61.0431 92.7266C61.2619 93.3672 61.4689 94.0625 61.6642 94.8125C61.8673 95.5625 62.0509 96.2891 62.215 96.9922C62.3791 97.6953 62.5197 98.332 62.6369 98.9023C62.7541 99.4648 62.84 99.8828 62.8947 100.156C63.0588 100.133 63.2228 100.113 63.3869 100.098C63.5509 100.074 63.715 100.062 63.8791 100.062C63.9572 100.062 64.047 100.066 64.1486 100.074C64.2502 100.082 64.3439 100.105 64.4298 100.145C64.5236 100.176 64.5978 100.227 64.6525 100.297C64.715 100.359 64.7463 100.445 64.7463 100.555ZM61.0666 100.461C60.8634 99.3516 60.6408 98.2539 60.3986 97.168C60.1642 96.0742 59.8869 94.9844 59.5666 93.8984C59.4259 95.0781 59.2736 96.25 59.1095 97.4141C58.9455 98.5781 58.7697 99.7422 58.5822 100.906C59.0041 100.844 59.4181 100.777 59.8244 100.707C60.2384 100.629 60.6525 100.547 61.0666 100.461ZM89.7386 103.531C89.7386 103.648 89.7191 103.766 89.68 103.883C89.6488 103.992 89.6136 104.102 89.5745 104.211C89.4027 104.656 89.1917 105.07 88.9417 105.453C88.6917 105.828 88.4027 106.152 88.0745 106.426C87.7464 106.699 87.3753 106.914 86.9613 107.07C86.5472 107.227 86.0902 107.305 85.5902 107.305C84.9261 107.305 84.3558 107.164 83.8792 106.883C83.4027 106.602 82.9964 106.238 82.6605 105.793C82.3245 105.34 82.0472 104.836 81.8284 104.281C81.6175 103.727 81.4495 103.172 81.3245 102.617C81.137 101.812 80.9925 101.008 80.8909 100.203C80.7894 99.3906 80.7386 98.5781 80.7386 97.7656C80.7386 97.2891 80.7581 96.7969 80.7972 96.2891C80.8441 95.7812 80.9222 95.2812 81.0316 94.7891C81.1409 94.2891 81.2894 93.8086 81.4769 93.3477C81.6644 92.8789 81.8988 92.4492 82.18 92.0586C82.4613 91.6602 82.7933 91.3086 83.1761 91.0039C83.5667 90.6992 84.0198 90.4609 84.5355 90.2891C84.723 90.2188 84.9183 90.1719 85.1214 90.1484C85.3245 90.1172 85.5277 90.1016 85.7308 90.1016C86.137 90.1016 86.5238 90.168 86.8909 90.3008C87.2581 90.4336 87.5784 90.6211 87.8519 90.8633C88.1331 91.1055 88.3519 91.3984 88.5081 91.7422C88.6722 92.0859 88.7542 92.4688 88.7542 92.8906C88.7542 93.0312 88.723 93.1367 88.6605 93.207C88.598 93.2773 88.4886 93.3125 88.3323 93.3125C88.0433 93.3125 87.8167 93.2656 87.6527 93.1719C87.4964 93.0781 87.3675 92.9609 87.2659 92.8203C87.1644 92.6797 87.0784 92.5273 87.0081 92.3633C86.9456 92.1992 86.8675 92.0469 86.7738 91.9062C86.68 91.7656 86.555 91.6484 86.3988 91.5547C86.2425 91.4609 86.0277 91.4141 85.7542 91.4141C85.4808 91.4141 85.223 91.4688 84.9808 91.5781C84.7464 91.6797 84.5277 91.8164 84.3245 91.9883C84.1292 92.1602 83.9495 92.3555 83.7855 92.5742C83.6292 92.7852 83.4886 93 83.3636 93.2188C83.0355 93.8281 82.805 94.4805 82.6722 95.1758C82.5394 95.8633 82.473 96.5547 82.473 97.25C82.473 97.4844 82.4808 97.7891 82.4964 98.1641C82.5198 98.5312 82.5511 98.9375 82.5902 99.3828C82.637 99.8281 82.6995 100.301 82.7777 100.801C82.8558 101.293 82.9495 101.777 83.0589 102.254C83.1761 102.73 83.3128 103.188 83.4691 103.625C83.6331 104.062 83.8167 104.445 84.0198 104.773C84.2308 105.102 84.4652 105.363 84.723 105.559C84.9886 105.754 85.2855 105.852 85.6136 105.852C85.9495 105.852 86.2464 105.766 86.5042 105.594C86.762 105.414 86.9808 105.191 87.1605 104.926C87.348 104.652 87.5003 104.359 87.6175 104.047C87.7425 103.727 87.8402 103.43 87.9105 103.156C87.9339 103.078 87.9534 103.008 87.9691 102.945C87.9925 102.883 88.0198 102.828 88.0511 102.781C88.0902 102.734 88.137 102.699 88.1917 102.676C88.2464 102.652 88.3245 102.641 88.4261 102.641C88.5355 102.641 88.6644 102.664 88.8128 102.711C88.9691 102.75 89.1136 102.809 89.2464 102.887C89.387 102.965 89.5042 103.059 89.598 103.168C89.6917 103.277 89.7386 103.398 89.7386 103.531Z" fill="#C08332"/>
</g>
<defs>
<linearGradient id="paint0_linear_256_389" x1="68.9945" y1="63.0383" x2="66.6594" y2="65.5217" gradientUnits="userSpaceOnUse">
<stop stop-color="white"/>
<stop offset="1" stop-opacity="0"/>
</linearGradient>
<linearGradient id="paint1_linear_256_389" x1="72.7194" y1="66.5413" x2="70.3843" y2="69.0247" gradientUnits="userSpaceOnUse">
<stop stop-color="white"/>
<stop offset="1" stop-opacity="0"/>
</linearGradient>
<linearGradient id="paint2_linear_256_389" x1="76.2224" y1="62.8162" x2="73.887" y2="65.2996" gradientUnits="userSpaceOnUse">
<stop stop-color="white"/>
<stop offset="1" stop-color="white" stop-opacity="0"/>
</linearGradient>
<linearGradient id="paint3_linear_256_389" x1="79.7254" y1="59.0911" x2="77.3902" y2="61.5745" gradientUnits="userSpaceOnUse">
<stop stop-color="white"/>
<stop offset="1" stop-opacity="0"/>
</linearGradient>
<linearGradient id="paint4_linear_256_389" x1="72.497" y1="59.3132" x2="69.8283" y2="61.81" gradientUnits="userSpaceOnUse">
<stop stop-color="white"/>
<stop offset="1" stop-opacity="0"/>
</linearGradient>
<linearGradient id="paint5_linear_256_389" x1="76.0003" y1="55.5884" x2="73.6648" y2="58.0718" gradientUnits="userSpaceOnUse">
<stop stop-color="white"/>
<stop offset="1" stop-opacity="0"/>
</linearGradient>
<clipPath id="clip0_256_389">
<rect width="89" height="40" fill="white" transform="translate(16 140)"/>
</clipPath>
</defs>
</svg>
