<svg width="66" height="31" viewBox="0 0 66 31" fill="none" xmlns="http://www.w3.org/2000/svg">
<path d="M9.20614 20.6322C9.20614 20.8235 9.14368 21.0091 9.01876 21.1889C8.90286 21.3687 8.76013 21.5427 8.59057 21.711C8.42112 21.8793 8.24722 22.0376 8.06874 22.1828C7.89039 22.3181 7.7432 22.4303 7.62719 22.5209C7.32392 22.7683 7.02053 22.9984 6.71726 23.2113C6.42289 23.4257 6.11516 23.6112 5.79396 23.768C5.48178 23.9248 5.15612 24.0485 4.81711 24.1391C4.48712 24.2283 4.13919 24.2743 3.77346 24.2743L3.55936 24.3074C3.265 24.3074 2.97063 24.2686 2.67615 24.1895C2.39069 24.0989 2.12315 23.9708 1.87331 23.8011C1.62359 23.6213 1.40059 23.3969 1.2043 23.1279C1.00802 22.8575 0.856385 22.5324 0.749394 22.1498C0.669008 21.8462 0.606662 21.4866 0.562016 21.0709C0.51737 20.6552 0.481744 20.2222 0.454911 19.7734C0.437098 19.3232 0.419287 18.8845 0.401474 18.4587C0.392453 18.02 0.383544 17.6316 0.374638 17.295C0.240814 13.8563 0.133824 10.4175 0.0535524 6.97862C0.0357396 6.58535 0.0222656 6.19193 0.0133592 5.79866C0.00445283 5.40539 0 5.01198 0 4.6187C0 3.9445 0.0311733 3.37129 0.0936323 2.89933C0.156091 2.42738 0.281006 2.03957 0.468384 1.7362C0.655646 1.43284 0.923298 1.21362 1.27122 1.07883C1.62805 0.943908 2.09632 0.876443 2.67615 0.876443C3.25609 0.876443 3.83592 0.882057 4.41575 0.893421C5.00448 0.90464 5.59322 0.910244 6.18207 0.910244C6.36043 0.910244 6.5389 0.90464 6.71726 0.893421C6.89573 0.870837 7.07408 0.887804 7.25255 0.943903C7.35955 0.966343 7.45317 1.00576 7.53356 1.06186C7.61383 1.10688 7.65391 1.21362 7.65391 1.3822C7.65391 1.78684 7.54692 2.0902 7.33283 2.29245C7.11873 2.48347 6.86444 2.61279 6.57007 2.68011C6.2757 2.74757 5.96798 2.78138 5.64678 2.78138C5.3346 2.77002 5.07585 2.7644 4.87066 2.7644H3.13117C2.9527 2.7644 2.77434 2.7644 2.59587 2.7644C2.41752 2.7644 2.23905 2.77562 2.06069 2.7982C2.00714 2.96679 1.97151 3.14099 1.95358 3.3208C1.93577 3.5006 1.92687 3.68601 1.92687 3.87704C1.92687 5.10188 1.94913 6.31003 1.99378 7.5012C2.04733 8.69238 2.09632 9.90053 2.14096 11.1254C2.69407 11.0693 3.24261 11.0018 3.78682 10.9231C4.33102 10.8444 4.87957 10.7545 5.43268 10.6534C5.51295 10.6534 5.58432 10.6478 5.64678 10.6366C5.71814 10.6254 5.78951 10.6198 5.86087 10.6198C6.04825 10.6198 6.17762 10.6815 6.24898 10.8052C6.32925 10.9287 6.36933 11.1029 6.36933 11.3278C6.36933 11.485 6.36043 11.6311 6.34262 11.7659C6.33371 11.9008 6.30688 12.0358 6.26235 12.1705C6.19989 12.3954 6.09724 12.5582 5.9545 12.6593C5.81177 12.7606 5.65123 12.8335 5.47287 12.8786C5.2944 12.9122 5.10714 12.929 4.91085 12.929C4.72348 12.929 4.55848 12.9348 4.41575 12.946C4.04111 12.9685 3.67081 12.9853 3.30508 12.9965C2.94825 13.0077 2.58697 13.0245 2.22124 13.0471C2.23014 13.283 2.2435 13.637 2.26143 14.1091C2.27924 14.5807 2.29706 15.1143 2.31487 15.7098C2.3417 16.2953 2.36842 16.9023 2.39525 17.5309C2.43088 18.161 2.46662 18.7565 2.50224 19.3175C2.53798 19.8684 2.57806 20.3517 2.62271 20.7674C2.66724 21.1831 2.71189 21.4636 2.75653 21.6103C2.85462 21.8462 2.96618 22.003 3.09098 22.0822C3.2159 22.1498 3.38089 22.1828 3.58608 22.1828C3.91619 22.1828 4.26411 22.1052 4.62984 21.9469C4.99558 21.7786 5.35241 21.5715 5.70033 21.3241C6.04825 21.0652 6.37824 20.7847 6.69054 20.4812C7.01163 20.1776 7.28818 19.8799 7.52009 19.5879C7.61829 19.4858 7.71637 19.3851 7.81446 19.2844C7.91266 19.1722 8.02867 19.1161 8.16238 19.1161C8.2962 19.1161 8.42557 19.1664 8.55049 19.2671C8.67541 19.3678 8.78685 19.4973 8.88505 19.6555C8.98314 19.8008 9.05895 19.9633 9.11251 20.1431C9.17497 20.3229 9.20614 20.4869 9.20614 20.6322ZM37.4626 15.0366C37.4626 15.2726 37.3957 15.52 37.2619 15.7774C37.1281 16.0364 36.9809 16.2277 36.8203 16.3514C36.7757 16.3845 36.6999 16.419 36.5928 16.4521C36.4858 16.4852 36.3698 16.5197 36.2448 16.5528C36.1289 16.5758 36.0129 16.6046 35.897 16.6376C35.7899 16.6607 35.7052 16.6765 35.6427 16.688L35.9639 19.1837C36.062 19.959 36.1334 20.7401 36.178 21.5255C36.2315 22.3008 36.3475 23.0718 36.5259 23.8356C36.5438 23.9032 36.5616 23.9651 36.5794 24.0212C36.5972 24.0773 36.6062 24.1506 36.6062 24.2398C36.6062 24.3865 36.5705 24.4987 36.4991 24.5779C36.4367 24.6555 36.3564 24.7116 36.2583 24.7462C36.169 24.7907 36.0709 24.8181 35.9639 24.8296C35.8568 24.8411 35.7588 24.8468 35.6695 24.8468H35.4822C35.2057 24.8468 34.9916 24.8181 34.8399 24.762C34.6972 24.7059 34.5856 24.6109 34.5054 24.4757C34.4251 24.3405 34.3715 24.1722 34.3448 23.9708C34.318 23.7565 34.2868 23.499 34.2512 23.1955C34.0371 21.1385 33.7962 19.0816 33.5285 17.026C32.9755 17.1152 32.4179 17.2001 31.8559 17.2777C31.3028 17.3569 30.7453 17.4302 30.1833 17.4978L29.7552 20.8005C29.7372 21.0033 29.7105 21.2795 29.6748 21.6276C29.6481 21.9757 29.6124 22.3353 29.5678 22.7064C29.532 23.0661 29.4875 23.4026 29.434 23.7177C29.3893 24.0327 29.3359 24.2628 29.2734 24.4081C29.2199 24.5433 29.1708 24.6383 29.1262 24.6958C29.0816 24.7519 28.9969 24.7792 28.8719 24.7792C28.7114 24.7792 28.5509 24.7404 28.3902 24.6613C28.2386 24.5937 28.1003 24.493 27.9755 24.3578C27.8595 24.2341 27.7658 24.083 27.6945 23.9032C27.6231 23.7234 27.5874 23.5206 27.5874 23.2962C27.5874 23.0718 27.6052 22.846 27.6409 22.6216C27.6856 22.3972 27.7212 22.1728 27.7479 21.9469C27.8461 21.2061 27.9353 20.4697 28.0156 19.7389C28.0958 18.9981 28.1851 18.2616 28.2832 17.5309C28.2207 17.5194 28.1494 17.5036 28.0691 17.4806C27.9888 17.446 27.9086 17.4072 27.8283 17.3626C27.7569 17.318 27.6945 17.2619 27.6409 17.1943C27.5874 17.1267 27.5606 17.0476 27.5606 16.9584C27.5606 16.8448 27.5918 16.7441 27.6543 16.6549C27.7256 16.5528 27.8059 16.4636 27.8951 16.3845C27.9933 16.2953 28.0914 16.2219 28.1896 16.1658C28.2877 16.0982 28.3724 16.0479 28.4437 16.0134C28.6311 14.4411 28.8095 12.8729 28.979 11.3108C29.1485 9.74877 29.3001 8.16979 29.434 6.57412C29.4697 6.14705 29.5009 5.71437 29.5276 5.27608C29.5544 4.83778 29.5811 4.39963 29.6079 3.96133C29.6436 3.52304 29.6838 3.09036 29.7283 2.66328C29.7819 2.23621 29.8532 1.80928 29.9424 1.3822C30.0227 0.977567 30.1565 0.651755 30.3439 0.404486C30.5312 0.157217 30.8077 0.0336587 31.1734 0.0336587C31.2805 0.0336587 31.3831 0.0448776 31.4813 0.0673174C31.5883 0.089901 31.682 0.134785 31.7623 0.202249C31.9942 0.348395 32.235 0.747277 32.4849 1.39904C32.7346 2.0508 32.9844 2.84309 33.2341 3.77592C33.484 4.69739 33.7203 5.69754 33.9433 6.77637C34.1752 7.85521 34.3849 8.90039 34.5723 9.91176C34.7596 10.9231 34.9202 11.839 35.054 12.6593C35.1878 13.4685 35.2859 14.0697 35.3484 14.4627C35.5358 14.4296 35.723 14.4009 35.9104 14.3793C36.0977 14.3448 36.285 14.3275 36.4724 14.3275C36.5616 14.3275 36.6641 14.3332 36.7801 14.3448C36.8961 14.3563 37.0031 14.3893 37.1012 14.4469C37.2083 14.4915 37.2931 14.5648 37.3555 14.6655C37.4269 14.7547 37.4626 14.8784 37.4626 15.0366ZM33.261 14.9014C33.0289 13.3056 32.7748 11.7266 32.4982 10.1646C32.2306 8.59126 31.9139 7.02364 31.5482 5.46149C31.3875 7.15842 31.2136 8.84414 31.0263 10.5186C30.839 12.193 30.6383 13.8675 30.4242 15.5415C30.9059 15.4524 31.3786 15.356 31.8426 15.2553C32.3153 15.1431 32.7881 15.0251 33.261 14.9014ZM66 19.3175C66 19.4858 65.9777 19.6555 65.9331 19.8238C65.8975 19.9806 65.8573 20.1388 65.8126 20.2956C65.6165 20.9357 65.3755 21.5312 65.0901 22.0822C64.8046 22.6216 64.4746 23.0876 64.0999 23.4818C63.7252 23.8745 63.3015 24.1837 62.8288 24.4081C62.3559 24.634 61.8341 24.7462 61.2632 24.7462C60.5049 24.7462 59.8537 24.5433 59.3095 24.1391C58.7654 23.7349 58.3014 23.2113 57.9179 22.5712C57.5342 21.9196 57.2176 21.1946 56.9678 20.3963C56.7269 19.5994 56.5351 18.8011 56.3924 18.0027C56.1783 16.8448 56.0133 15.6883 55.8973 14.5303C55.7814 13.3617 55.7234 12.193 55.7234 11.0242C55.7234 10.3388 55.7456 9.63083 55.7903 8.90038C55.8438 8.1698 55.933 7.45057 56.0579 6.74271C56.1827 6.02349 56.3523 5.33232 56.5664 4.66934C56.7805 3.995 57.0481 3.3769 57.3692 2.81504C57.6904 2.24196 58.0695 1.7362 58.5066 1.29791C58.9526 0.859612 59.47 0.516834 60.0589 0.269709C60.273 0.168586 60.496 0.101121 60.7279 0.0673174C60.9598 0.0224379 61.1918 0 61.4237 0C61.8875 0 62.3292 0.0955068 62.7484 0.286532C63.1676 0.477558 63.5334 0.747267 63.8457 1.09566C64.1668 1.44405 64.4166 1.86538 64.595 2.35992C64.7823 2.85431 64.876 3.40509 64.876 4.01183C64.876 4.21407 64.8403 4.36583 64.769 4.46695C64.6976 4.56807 64.5727 4.6187 64.3942 4.6187C64.0642 4.6187 63.8055 4.55124 63.6182 4.41646C63.4398 4.28153 63.2926 4.11294 63.1766 3.9107C63.0607 3.70845 62.9625 3.48923 62.8822 3.25333C62.8108 3.01728 62.7216 2.7982 62.6147 2.59581C62.5076 2.39357 62.3648 2.22499 62.1865 2.09021C62.008 1.95528 61.7627 1.88796 61.4504 1.88796C61.1382 1.88796 60.8439 1.96665 60.5673 2.12387C60.2997 2.27001 60.05 2.46664 59.8179 2.71391C59.5949 2.96118 59.3897 3.24212 59.2025 3.5567C59.024 3.86022 58.8635 4.16919 58.7207 4.48393C58.3461 5.36037 58.0829 6.2988 57.9313 7.29896C57.7796 8.28789 57.7038 9.28243 57.7038 10.2826C57.7038 10.6198 57.7127 11.0581 57.7305 11.5975C57.7572 12.1255 57.793 12.71 57.8376 13.3505C57.8911 13.991 57.9624 14.6713 58.0517 15.3905C58.1409 16.0982 58.2479 16.7944 58.3728 17.4806C58.5066 18.1653 58.6627 18.8241 58.8412 19.4527C59.0285 20.0813 59.2381 20.6322 59.47 21.104C59.7109 21.5773 59.9786 21.9527 60.273 22.2346C60.5762 22.5151 60.9152 22.6561 61.2899 22.6561C61.6734 22.6561 62.0124 22.5324 62.3068 22.285C62.6012 22.0261 62.851 21.7053 63.0562 21.3241C63.2703 20.93 63.4442 20.5085 63.578 20.0597C63.7208 19.5994 63.8323 19.1722 63.9126 18.778C63.9393 18.6658 63.9616 18.5652 63.9795 18.4745C64.0062 18.3853 64.0374 18.3062 64.0731 18.2386C64.1178 18.171 64.1712 18.1207 64.2337 18.0876C64.2961 18.0531 64.3853 18.0372 64.5013 18.0372C64.6262 18.0372 64.7734 18.0703 64.9429 18.1379C65.1213 18.194 65.2863 18.2789 65.438 18.3911C65.5985 18.5033 65.7324 18.6385 65.8395 18.7953C65.9464 18.9521 66 19.1261 66 19.3175Z" fill="#C08332"/>
<rect y="25" width="66" height="6" fill="white"/>
</svg>
